  0
SECTION
  2
HEADER
  9
$ACADVER
  1
AC1009
  9
$INSUNITS
 70
     1
  0
ENDSEC
  0
SECTION
  2
TABLES
  0
TABLE
  2
LAYER
 70
     8
  0
LAYER
  2
0
 62
     7
 70
0
  6
CONTINUOUS
  0
LAYER
  2
1
 62
     1
 70
0
  6
CONTINUOUS
  0
LAYER
  2
2
 62
     2
 70
0
  6
CONTINUOUS
  0
LAYER
  2
3
 62
     3
 70
0
  6
CONTINUOUS
  0
LAYER
  2
4
 62
     4
 70
0
  6
CONTINUOUS
  0
LAYER
  2
5
 62
     5
 70
0
  6
CONTINUOUS
  0
LAYER
  2
6
 62
     6
 70
0
  6
CONTINUOUS
  0
LAYER
  2
7
 62
     7
 70
0
  6
CONTINUOUS
  0
ENDTAB
  0
TABLE
  2
STYLE
 70
     1
  0
STYLE
 70
     0
  2
STANDARD
  3
TXT
 40
0.00
 41
1.00
 42
1.00
 50
0.00
 71
     0
  0
ENDTAB
  0
ENDSEC
  0
SECTION
  2
BLOCKS
  0
BLOCK
  8
0
  2
EPAD
 70
0
 10
0.0
 20
0.0
  0
POLYLINE
  8
0
 66
1
 70
1
 40
0.5
 41
0.5
  0
VERTEX
  8
0
 10
-0.25
 20
0.0
 42
1.0
  0
VERTEX
  8
0
 10
0.25
 20
0.0
 42
1.0
  0
SEQEND
  8
0
  0
ENDBLK
  8
0
  0
BLOCK
  8
0
  2
RPAD
 70
0
 10
0.0
 20
0.0
  0
TRACE
  8
0
 10
-0.5
 20
-0.5
 11
-0.5
 21
0.5
 12
0.5
 22
-0.5
 13
0.5
 23
0.5
  0
ENDBLK
  8
0
  0
ENDSEC
0
SECTION
2
ENTITIES
0
POLYLINE
8
0
66
1
40
0.016000
41
0.016000
0
VERTEX
8
0
10
-2.300000
20
-1.000000
0
VERTEX
8
0
10
-2.300000
20
-1.100000
0
SEQEND
8
0
0
POLYLINE
8
0
66
1
40
0.016000
41
0.016000
0
VERTEX
8
0
10
-2.000000
20
0.900000
0
VERTEX
8
0
10
-1.700000
20
0.900000
0
SEQEND
8
0
0
POLYLINE
8
0
66
1
40
0.016000
41
0.016000
0
VERTEX
8
0
10
-1.700000
20
1.100000
0
VERTEX
8
0
10
-1.700000
20
0.900000
0
SEQEND
8
0
0
POLYLINE
8
0
66
1
40
0.016000
41
0.016000
0
VERTEX
8
0
10
-1.000000
20
1.100000
0
VERTEX
8
0
10
-1.300000
20
1.100000
0
VERTEX
8
0
10
-1.300000
20
0.900000
0
VERTEX
8
0
10
-1.700000
20
0.900000
0
SEQEND
8
0
0
POLYLINE
8
0
66
1
40
0.016000
41
0.016000
0
VERTEX
8
0
10
-1.000000
20
1.400000
0
VERTEX
8
0
10
-1.300000
20
1.400000
0
VERTEX
8
0
10
-1.300000
20
1.600000
0
VERTEX
8
0
10
-1.700000
20
1.600000
0
SEQEND
8
0
0
POLYLINE
8
0
66
1
40
0.016000
41
0.016000
0
VERTEX
8
0
10
-2.000000
20
1.600000
0
VERTEX
8
0
10
-1.700000
20
1.600000
0
SEQEND
8
0
0
POLYLINE
8
0
66
1
40
0.016000
41
0.016000
0
VERTEX
8
0
10
-1.700000
20
1.500000
0
VERTEX
8
0
10
-1.700000
20
1.600000
0
SEQEND
8
0
0
POLYLINE
8
0
66
1
40
0.016000
41
0.016000
0
VERTEX
8
0
10
-2.400000
20
0.900000
0
VERTEX
8
0
10
-2.600000
20
0.900000
0
VERTEX
8
0
10
-2.600000
20
1.300000
0
SEQEND
8
0
0
POLYLINE
8
0
66
1
40
0.016000
41
0.016000
0
VERTEX
8
0
10
-2.400000
20
1.600000
0
VERTEX
8
0
10
-2.600000
20
1.600000
0
VERTEX
8
0
10
-2.600000
20
1.300000
0
SEQEND
8
0
0
POLYLINE
8
0
66
1
40
0.016000
41
0.016000
0
VERTEX
8
0
10
-3.200000
20
1.200000
0
VERTEX
8
0
10
-3.200000
20
1.300000
0
VERTEX
8
0
10
-2.600000
20
1.300000
0
SEQEND
8
0
0
POLYLINE
8
0
66
1
40
0.016000
41
0.016000
0
VERTEX
8
0
10
-2.300000
20
0.200000
0
VERTEX
8
0
10
-2.300000
20
0.300000
0
VERTEX
8
0
10
-2.300000
20
0.300000
0
SEQEND
8
0
0
POLYLINE
8
0
66
1
40
0.016000
41
0.016000
0
VERTEX
8
0
10
-2.800000
20
0.050000
0
VERTEX
8
0
10
-2.800000
20
0.300000
0
VERTEX
8
0
10
-2.300000
20
0.300000
0
SEQEND
8
0
0
POLYLINE
8
0
66
1
40
0.016000
41
0.016000
0
VERTEX
8
0
10
-2.300000
20
-0.500000
0
VERTEX
8
0
10
-2.300000
20
-0.500000
0
SEQEND
8
0
0
POLYLINE
8
0
66
1
40
0.016000
41
0.016000
0
VERTEX
8
0
10
-2.800000
20
-0.450000
0
VERTEX
8
0
10
-2.800000
20
-0.500000
0
VERTEX
8
0
10
-2.300000
20
-0.500000
0
SEQEND
8
0
0
POLYLINE
8
0
66
1
40
0.016000
41
0.016000
0
VERTEX
8
0
10
-2.300000
20
-0.200000
0
VERTEX
8
0
10
-2.300000
20
-0.300000
0
SEQEND
8
0
0
POLYLINE
8
0
66
1
40
0.016000
41
0.016000
0
VERTEX
8
0
10
-2.300000
20
-0.500000
0
VERTEX
8
0
10
-2.300000
20
-0.300000
0
SEQEND
8
0
0
POLYLINE
8
0
66
1
40
0.016000
41
0.016000
0
VERTEX
8
0
10
-1.000000
20
0.700000
0
VERTEX
8
0
10
-1.300000
20
0.700000
0
VERTEX
8
0
10
-1.300000
20
-0.300000
0
VERTEX
8
0
10
-2.300000
20
-0.300000
0
SEQEND
8
0
0
POLYLINE
8
0
66
1
40
0.016000
41
0.016000
0
VERTEX
8
0
10
2.900000
20
-0.700000
0
VERTEX
8
0
10
3.000000
20
-0.700000
0
VERTEX
8
0
10
3.000000
20
-0.400000
0
SEQEND
8
0
0
POLYLINE
8
0
66
1
40
0.016000
41
0.016000
0
VERTEX
8
0
10
2.900000
20
-0.400000
0
VERTEX
8
0
10
3.000000
20
-0.400000
0
VERTEX
8
0
10
3.000000
20
-0.100000
0
SEQEND
8
0
0
POLYLINE
8
0
66
1
40
0.016000
41
0.016000
0
VERTEX
8
0
10
2.900000
20
-0.100000
0
VERTEX
8
0
10
3.000000
20
-0.100000
0
VERTEX
8
0
10
3.000000
20
0.200000
0
SEQEND
8
0
0
POLYLINE
8
0
66
1
40
0.016000
41
0.016000
0
VERTEX
8
0
10
2.900000
20
0.200000
0
VERTEX
8
0
10
3.000000
20
0.200000
0
VERTEX
8
0
10
3.000000
20
0.500000
0
SEQEND
8
0
0
POLYLINE
8
0
66
1
40
0.016000
41
0.016000
0
VERTEX
8
0
10
2.900000
20
0.500000
0
VERTEX
8
0
10
3.000000
20
0.500000
0
VERTEX
8
0
10
3.000000
20
0.800000
0
SEQEND
8
0
0
POLYLINE
8
0
66
1
40
0.016000
41
0.016000
0
VERTEX
8
0
10
2.900000
20
0.800000
0
VERTEX
8
0
10
3.000000
20
0.800000
0
SEQEND
8
0
0
POLYLINE
8
0
66
1
40
0.016000
41
0.016000
0
VERTEX
8
0
10
2.900000
20
1.100000
0
VERTEX
8
0
10
3.000000
20
1.100000
0
SEQEND
8
0
0
POLYLINE
8
0
66
1
40
0.016000
41
0.016000
0
VERTEX
8
0
10
3.000000
20
0.800000
0
VERTEX
8
0
10
3.000000
20
1.100000
0
SEQEND
8
0
0
POLYLINE
8
0
66
1
40
0.016000
41
0.016000
0
VERTEX
8
0
10
3.000000
20
1.300000
0
VERTEX
8
0
10
3.000000
20
1.100000
0
SEQEND
8
0
0
POLYLINE
8
0
66
1
40
0.016000
41
0.016000
0
VERTEX
8
0
10
2.400000
20
1.100000
0
VERTEX
8
0
10
2.200000
20
1.100000
0
SEQEND
8
0
0
POLYLINE
8
0
66
1
40
0.016000
41
0.016000
0
VERTEX
8
0
10
0.800000
20
0.500000
0
VERTEX
8
0
10
1.500000
20
0.500000
0
VERTEX
8
0
10
1.500000
20
1.100000
0
VERTEX
8
0
10
1.800000
20
1.100000
0
SEQEND
8
0
0
TEXT
8
0
10
1.000000
20
0.518000
40
0.080000
41
1.000000
1
P20
0
POLYLINE
8
0
66
1
40
0.016000
41
0.016000
0
VERTEX
8
0
10
2.400000
20
0.800000
0
VERTEX
8
0
10
2.200000
20
0.800000
0
SEQEND
8
0
0
POLYLINE
8
0
66
1
40
0.016000
41
0.016000
0
VERTEX
8
0
10
0.800000
20
0.400000
0
VERTEX
8
0
10
1.600000
20
0.400000
0
VERTEX
8
0
10
1.600000
20
0.800000
0
VERTEX
8
0
10
1.800000
20
0.800000
0
SEQEND
8
0
0
TEXT
8
0
10
1.000000
20
0.418000
40
0.080000
41
1.000000
1
P21
0
POLYLINE
8
0
66
1
40
0.016000
41
0.016000
0
VERTEX
8
0
10
2.400000
20
0.500000
0
VERTEX
8
0
10
2.200000
20
0.500000
0
SEQEND
8
0
0
POLYLINE
8
0
66
1
40
0.016000
41
0.016000
0
VERTEX
8
0
10
0.800000
20
0.300000
0
VERTEX
8
0
10
1.700000
20
0.300000
0
VERTEX
8
0
10
1.700000
20
0.500000
0
VERTEX
8
0
10
1.800000
20
0.500000
0
SEQEND
8
0
0
TEXT
8
0
10
1.000000
20
0.318000
40
0.080000
41
1.000000
1
P22
0
POLYLINE
8
0
66
1
40
0.016000
41
0.016000
0
VERTEX
8
0
10
2.400000
20
0.200000
0
VERTEX
8
0
10
2.200000
20
0.200000
0
SEQEND
8
0
0
POLYLINE
8
0
66
1
40
0.016000
41
0.016000
0
VERTEX
8
0
10
0.800000
20
0.200000
0
VERTEX
8
0
10
1.800000
20
0.200000
0
SEQEND
8
0
0
TEXT
8
0
10
1.000000
20
0.218000
40
0.080000
41
1.000000
1
P23
0
POLYLINE
8
0
66
1
40
0.016000
41
0.016000
0
VERTEX
8
0
10
2.400000
20
-0.100000
0
VERTEX
8
0
10
2.200000
20
-0.100000
0
SEQEND
8
0
0
POLYLINE
8
0
66
1
40
0.016000
41
0.016000
0
VERTEX
8
0
10
0.800000
20
0.100000
0
VERTEX
8
0
10
1.700000
20
0.100000
0
VERTEX
8
0
10
1.700000
20
-0.100000
0
VERTEX
8
0
10
1.800000
20
-0.100000
0
SEQEND
8
0
0
TEXT
8
0
10
1.000000
20
0.118000
40
0.080000
41
1.000000
1
P24
0
POLYLINE
8
0
66
1
40
0.016000
41
0.016000
0
VERTEX
8
0
10
2.400000
20
-0.400000
0
VERTEX
8
0
10
2.200000
20
-0.400000
0
SEQEND
8
0
0
POLYLINE
8
0
66
1
40
0.016000
41
0.016000
0
VERTEX
8
0
10
0.800000
20
0.000000
0
VERTEX
8
0
10
1.600000
20
0.000000
0
VERTEX
8
0
10
1.600000
20
-0.400000
0
VERTEX
8
0
10
1.800000
20
-0.400000
0
SEQEND
8
0
0
TEXT
8
0
10
1.000000
20
0.018000
40
0.080000
41
1.000000
1
P25
0
POLYLINE
8
0
66
1
40
0.016000
41
0.016000
0
VERTEX
8
0
10
2.400000
20
-0.700000
0
VERTEX
8
0
10
2.200000
20
-0.700000
0
SEQEND
8
0
0
POLYLINE
8
0
66
1
40
0.016000
41
0.016000
0
VERTEX
8
0
10
0.800000
20
-0.100000
0
VERTEX
8
0
10
1.500000
20
-0.100000
0
VERTEX
8
0
10
1.500000
20
-0.700000
0
VERTEX
8
0
10
1.800000
20
-0.700000
0
SEQEND
8
0
0
TEXT
8
0
10
1.000000
20
-0.082000
40
0.080000
41
1.000000
1
P26
0
POLYLINE
8
0
66
1
40
0.016000
41
0.016000
0
VERTEX
8
0
10
2.400000
20
-1.000000
0
VERTEX
8
0
10
2.200000
20
-1.000000
0
SEQEND
8
0
0
POLYLINE
8
0
66
1
40
0.016000
41
0.016000
0
VERTEX
8
0
10
0.800000
20
-0.200000
0
VERTEX
8
0
10
1.400000
20
-0.200000
0
VERTEX
8
0
10
1.400000
20
-1.000000
0
VERTEX
8
0
10
1.800000
20
-1.000000
0
SEQEND
8
0
0
TEXT
8
0
10
1.000000
20
-0.182000
40
0.080000
41
1.000000
1
P27
0
POLYLINE
8
0
66
1
40
0.016000
41
0.016000
0
VERTEX
8
0
10
2.900000
20
-1.000000
0
VERTEX
8
0
10
3.000000
20
-1.000000
0
SEQEND
8
0
0
POLYLINE
8
0
66
1
40
0.016000
41
0.016000
0
VERTEX
8
0
10
3.000000
20
-0.700000
0
VERTEX
8
0
10
3.000000
20
-1.000000
0
SEQEND
8
0
0
POLYLINE
8
0
66
1
40
0.016000
41
0.016000
0
VERTEX
8
0
10
3.000000
20
-1.400000
0
VERTEX
8
0
10
3.000000
20
-1.000000
0
SEQEND
8
0
0
POLYLINE
8
0
66
1
40
0.016000
41
0.016000
0
VERTEX
8
0
10
0.800000
20
-0.400000
0
VERTEX
8
0
10
1.200000
20
-0.400000
0
SEQEND
8
0
0
TEXT
8
0
10
1.000000
20
-0.382000
40
0.080000
41
1.000000
1
P30
0
POLYLINE
8
0
66
1
40
0.016000
41
0.016000
0
VERTEX
8
0
10
0.800000
20
-0.500000
0
VERTEX
8
0
10
1.200000
20
-0.500000
0
SEQEND
8
0
0
TEXT
8
0
10
1.000000
20
-0.482000
40
0.080000
41
1.000000
1
P31
0
POLYLINE
8
0
66
1
40
0.016000
41
0.016000
0
VERTEX
8
0
10
-0.150000
20
-1.700000
0
VERTEX
8
0
10
0.100000
20
-1.700000
0
SEQEND
8
0
0
TEXT
8
0
10
-0.100000
20
-1.682000
40
0.080000
41
1.000000
1
P30
0
POLYLINE
8
0
66
1
40
0.016000
41
0.016000
0
VERTEX
8
0
10
-0.900000
20
-2.900000
0
VERTEX
8
0
10
-0.900000
20
-2.600000
0
SEQEND
8
0
0
POLYLINE
8
0
66
1
40
0.016000
41
0.016000
0
VERTEX
8
0
10
0.800000
20
-0.600000
0
VERTEX
8
0
10
1.200000
20
-0.600000
0
SEQEND
8
0
0
TEXT
8
0
10
1.000000
20
-0.582000
40
0.080000
41
1.000000
1
P32
0
POLYLINE
8
0
66
1
40
0.016000
41
0.016000
0
VERTEX
8
0
10
0.800000
20
-0.700000
0
VERTEX
8
0
10
1.200000
20
-0.700000
0
SEQEND
8
0
0
TEXT
8
0
10
1.000000
20
-0.682000
40
0.080000
41
1.000000
1
P33
0
POLYLINE
8
0
66
1
40
0.016000
41
0.016000
0
VERTEX
8
0
10
2.300000
20
-1.700000
0
VERTEX
8
0
10
2.200000
20
-1.700000
0
SEQEND
8
0
0
POLYLINE
8
0
66
1
40
0.016000
41
0.016000
0
VERTEX
8
0
10
2.300000
20
-1.800000
0
VERTEX
8
0
10
2.200000
20
-1.800000
0
SEQEND
8
0
0
POLYLINE
8
0
66
1
40
0.016000
41
0.016000
0
VERTEX
8
0
10
2.300000
20
-1.900000
0
VERTEX
8
0
10
2.200000
20
-1.900000
0
SEQEND
8
0
0
POLYLINE
8
0
66
1
40
0.016000
41
0.016000
0
VERTEX
8
0
10
2.300000
20
-2.000000
0
VERTEX
8
0
10
2.200000
20
-2.000000
0
SEQEND
8
0
0
POLYLINE
8
0
66
1
40
0.016000
41
0.016000
0
VERTEX
8
0
10
2.300000
20
-2.100000
0
VERTEX
8
0
10
2.200000
20
-2.100000
0
SEQEND
8
0
0
POLYLINE
8
0
66
1
40
0.016000
41
0.016000
0
VERTEX
8
0
10
2.300000
20
-2.200000
0
VERTEX
8
0
10
2.200000
20
-2.200000
0
SEQEND
8
0
0
POLYLINE
8
0
66
1
40
0.016000
41
0.016000
0
VERTEX
8
0
10
2.300000
20
-2.300000
0
VERTEX
8
0
10
2.200000
20
-2.300000
0
SEQEND
8
0
0
POLYLINE
8
0
66
1
40
0.016000
41
0.016000
0
VERTEX
8
0
10
1.400000
20
-1.700000
0
VERTEX
8
0
10
1.100000
20
-1.700000
0
SEQEND
8
0
0
TEXT
8
0
10
1.200000
20
-1.682000
40
0.080000
41
1.000000
1
P27
0
POLYLINE
8
0
66
1
40
0.016000
41
0.016000
0
VERTEX
8
0
10
1.400000
20
-1.800000
0
VERTEX
8
0
10
1.100000
20
-1.800000
0
SEQEND
8
0
0
TEXT
8
0
10
1.200000
20
-1.782000
40
0.080000
41
1.000000
1
P26
0
POLYLINE
8
0
66
1
40
0.016000
41
0.016000
0
VERTEX
8
0
10
1.400000
20
-1.900000
0
VERTEX
8
0
10
1.100000
20
-1.900000
0
SEQEND
8
0
0
TEXT
8
0
10
1.200000
20
-1.882000
40
0.080000
41
1.000000
1
P25
0
POLYLINE
8
0
66
1
40
0.016000
41
0.016000
0
VERTEX
8
0
10
1.400000
20
-2.000000
0
VERTEX
8
0
10
1.100000
20
-2.000000
0
SEQEND
8
0
0
TEXT
8
0
10
1.200000
20
-1.982000
40
0.080000
41
1.000000
1
P24
0
POLYLINE
8
0
66
1
40
0.016000
41
0.016000
0
VERTEX
8
0
10
1.400000
20
-2.100000
0
VERTEX
8
0
10
1.100000
20
-2.100000
0
SEQEND
8
0
0
TEXT
8
0
10
1.200000
20
-2.082000
40
0.080000
41
1.000000
1
P23
0
POLYLINE
8
0
66
1
40
0.016000
41
0.016000
0
VERTEX
8
0
10
1.400000
20
-2.200000
0
VERTEX
8
0
10
1.100000
20
-2.200000
0
SEQEND
8
0
0
TEXT
8
0
10
1.200000
20
-2.182000
40
0.080000
41
1.000000
1
P22
0
POLYLINE
8
0
66
1
40
0.016000
41
0.016000
0
VERTEX
8
0
10
1.400000
20
-2.300000
0
VERTEX
8
0
10
1.100000
20
-2.300000
0
SEQEND
8
0
0
TEXT
8
0
10
1.200000
20
-2.282000
40
0.080000
41
1.000000
1
P21
0
POLYLINE
8
0
66
1
40
0.016000
41
0.016000
0
VERTEX
8
0
10
1.400000
20
-2.400000
0
VERTEX
8
0
10
1.100000
20
-2.400000
0
SEQEND
8
0
0
TEXT
8
0
10
1.200000
20
-2.382000
40
0.080000
41
1.000000
1
P20
0
POLYLINE
8
0
66
1
40
0.016000
41
0.016000
0
VERTEX
8
0
10
0.600000
20
-2.000000
0
VERTEX
8
0
10
0.700000
20
-2.000000
0
SEQEND
8
0
0
POLYLINE
8
0
66
1
40
0.016000
41
0.016000
0
VERTEX
8
0
10
0.600000
20
-2.600000
0
VERTEX
8
0
10
0.700000
20
-2.600000
0
VERTEX
8
0
10
0.700000
20
-2.300000
0
SEQEND
8
0
0
POLYLINE
8
0
66
1
40
0.016000
41
0.016000
0
VERTEX
8
0
10
0.700000
20
-2.000000
0
VERTEX
8
0
10
0.700000
20
-2.300000
0
SEQEND
8
0
0
POLYLINE
8
0
66
1
40
0.016000
41
0.016000
0
VERTEX
8
0
10
0.600000
20
-2.300000
0
VERTEX
8
0
10
0.700000
20
-2.300000
0
SEQEND
8
0
0
POLYLINE
8
0
66
1
40
0.016000
41
0.016000
0
VERTEX
8
0
10
0.700000
20
-2.000000
0
VERTEX
8
0
10
0.700000
20
-1.700000
0
SEQEND
8
0
0
POLYLINE
8
0
66
1
40
0.016000
41
0.016000
0
VERTEX
8
0
10
0.600000
20
-1.700000
0
VERTEX
8
0
10
0.700000
20
-1.700000
0
SEQEND
8
0
0
POLYLINE
8
0
66
1
40
0.016000
41
0.016000
0
VERTEX
8
0
10
0.700000
20
-1.500000
0
VERTEX
8
0
10
0.700000
20
-1.700000
0
SEQEND
8
0
0
POLYLINE
8
0
66
1
40
0.016000
41
0.016000
0
VERTEX
8
0
10
0.100000
20
-2.000000
0
VERTEX
8
0
10
-0.150000
20
-2.000000
0
SEQEND
8
0
0
TEXT
8
0
10
-0.100000
20
-1.982000
40
0.080000
41
1.000000
1
P31
0
POLYLINE
8
0
66
1
40
0.016000
41
0.016000
0
VERTEX
8
0
10
0.100000
20
-2.300000
0
VERTEX
8
0
10
-0.150000
20
-2.300000
0
SEQEND
8
0
0
TEXT
8
0
10
-0.100000
20
-2.282000
40
0.080000
41
1.000000
1
P32
0
POLYLINE
8
0
66
1
40
0.016000
41
0.016000
0
VERTEX
8
0
10
-0.650000
20
-1.700000
0
VERTEX
8
0
10
-0.900000
20
-1.700000
0
VERTEX
8
0
10
-0.900000
20
-2.000000
0
SEQEND
8
0
0
POLYLINE
8
0
66
1
40
0.016000
41
0.016000
0
VERTEX
8
0
10
-0.650000
20
-2.000000
0
VERTEX
8
0
10
-0.900000
20
-2.000000
0
SEQEND
8
0
0
POLYLINE
8
0
66
1
40
0.016000
41
0.016000
0
VERTEX
8
0
10
-0.900000
20
-2.600000
0
VERTEX
8
0
10
-0.900000
20
-2.300000
0
SEQEND
8
0
0
POLYLINE
8
0
66
1
40
0.016000
41
0.016000
0
VERTEX
8
0
10
-0.900000
20
-2.000000
0
VERTEX
8
0
10
-0.900000
20
-2.300000
0
SEQEND
8
0
0
POLYLINE
8
0
66
1
40
0.016000
41
0.016000
0
VERTEX
8
0
10
-0.650000
20
-2.300000
0
VERTEX
8
0
10
-0.900000
20
-2.300000
0
SEQEND
8
0
0
POLYLINE
8
0
66
1
40
0.016000
41
0.016000
0
VERTEX
8
0
10
-0.900000
20
-2.600000
0
VERTEX
8
0
10
-0.650000
20
-2.600000
0
SEQEND
8
0
0
POLYLINE
8
0
66
1
40
0.016000
41
0.016000
0
VERTEX
8
0
10
0.100000
20
-2.600000
0
VERTEX
8
0
10
-0.150000
20
-2.600000
0
SEQEND
8
0
0
TEXT
8
0
10
-0.100000
20
-2.582000
40
0.080000
41
1.000000
1
P33
0
POLYLINE
8
0
66
1
40
0.016000
41
0.016000
0
VERTEX
8
0
10
-0.800000
20
-1.200000
0
VERTEX
8
0
10
0.600000
20
-1.200000
0
VERTEX
8
0
10
0.600000
20
1.500000
0
VERTEX
8
0
10
-0.800000
20
1.500000
0
VERTEX
8
0
10
-0.800000
20
-1.200000
0
SEQEND
8
0
0
POLYLINE
8
0
66
1
40
0.016000
41
0.016000
0
VERTEX
8
0
10
-1.000000
20
1.100000
0
VERTEX
8
0
10
-0.800000
20
1.100000
0
SEQEND
8
0
0
TEXT
8
0
10
-0.750000
20
1.060000
40
0.080000
41
1.000000
1
XTAL2
0
TEXT
8
0
10
-1.060000
20
1.110000
40
0.080000
41
1.000000
1
18
0
POLYLINE
8
0
66
1
40
0.016000
41
0.016000
0
VERTEX
8
0
10
-0.800000
20
1.430000
0
VERTEX
8
0
10
-0.770000
20
1.400000
0
VERTEX
8
0
10
-0.800000
20
1.370000
0
VERTEX
8
0
10
-0.800000
20
1.430000
0
SEQEND
8
0
0
POLYLINE
8
0
66
1
40
0.016000
41
0.016000
0
VERTEX
8
0
10
-1.000000
20
1.400000
0
VERTEX
8
0
10
-0.800000
20
1.400000
0
SEQEND
8
0
0
TEXT
8
0
10
-0.750000
20
1.360000
40
0.080000
41
1.000000
1
XTAL1
0
TEXT
8
0
10
-1.060000
20
1.410000
40
0.080000
41
1.000000
1
19
0
POLYLINE
8
0
66
1
40
0.016000
41
0.016000
0
VERTEX
8
0
10
-1.000000
20
0.100000
0
VERTEX
8
0
10
-0.800000
20
0.100000
0
SEQEND
8
0
0
TEXT
8
0
10
-0.750000
20
0.060000
40
0.080000
41
1.000000
1
ALE
0
TEXT
8
0
10
-1.060000
20
0.110000
40
0.080000
41
1.000000
1
30
0
POLYLINE
8
0
66
1
40
0.016000
41
0.016000
0
VERTEX
8
0
10
-1.000000
20
0.000000
0
VERTEX
8
0
10
-0.800000
20
0.000000
0
SEQEND
8
0
0
TEXT
8
0
10
-0.750000
20
-0.040000
40
0.080000
41
1.000000
1
EA
0
TEXT
8
0
10
-1.060000
20
0.010000
40
0.080000
41
1.000000
1
31
0
POLYLINE
8
0
66
1
40
0.016000
41
0.016000
0
VERTEX
8
0
10
-1.000000
20
0.200000
0
VERTEX
8
0
10
-0.800000
20
0.200000
0
SEQEND
8
0
0
TEXT
8
0
10
-0.750000
20
0.160000
40
0.080000
41
1.000000
1
PSEN
0
TEXT
8
0
10
-1.060000
20
0.210000
40
0.080000
41
1.000000
1
29
0
POLYLINE
8
0
66
1
40
0.016000
41
0.016000
0
VERTEX
8
0
10
-1.000000
20
0.700000
0
VERTEX
8
0
10
-0.800000
20
0.700000
0
SEQEND
8
0
0
TEXT
8
0
10
-0.750000
20
0.660000
40
0.080000
41
1.000000
1
RST
0
TEXT
8
0
10
-0.980000
20
0.710000
40
0.080000
41
1.000000
1
9
0
POLYLINE
8
0
66
1
40
0.016000
41
0.016000
0
VERTEX
8
0
10
0.800000
20
1.400000
0
VERTEX
8
0
10
0.600000
20
1.400000
0
SEQEND
8
0
0
TEXT
8
0
10
-0.090000
20
1.360000
40
0.080000
41
1.000000
1
P0.0/AD0
0
TEXT
8
0
10
0.700000
20
1.410000
40
0.080000
41
1.000000
1
39
0
POLYLINE
8
0
66
1
40
0.016000
41
0.016000
0
VERTEX
8
0
10
0.800000
20
1.300000
0
VERTEX
8
0
10
0.600000
20
1.300000
0
SEQEND
8
0
0
TEXT
8
0
10
-0.090000
20
1.260000
40
0.080000
41
1.000000
1
P0.1/AD1
0
TEXT
8
0
10
0.700000
20
1.310000
40
0.080000
41
1.000000
1
38
0
POLYLINE
8
0
66
1
40
0.016000
41
0.016000
0
VERTEX
8
0
10
0.800000
20
1.200000
0
VERTEX
8
0
10
0.600000
20
1.200000
0
SEQEND
8
0
0
TEXT
8
0
10
-0.090000
20
1.160000
40
0.080000
41
1.000000
1
P0.2/AD2
0
TEXT
8
0
10
0.700000
20
1.210000
40
0.080000
41
1.000000
1
37
0
POLYLINE
8
0
66
1
40
0.016000
41
0.016000
0
VERTEX
8
0
10
0.800000
20
1.100000
0
VERTEX
8
0
10
0.600000
20
1.100000
0
SEQEND
8
0
0
TEXT
8
0
10
-0.090000
20
1.060000
40
0.080000
41
1.000000
1
P0.3/AD3
0
TEXT
8
0
10
0.700000
20
1.110000
40
0.080000
41
1.000000
1
36
0
POLYLINE
8
0
66
1
40
0.016000
41
0.016000
0
VERTEX
8
0
10
0.800000
20
1.000000
0
VERTEX
8
0
10
0.600000
20
1.000000
0
SEQEND
8
0
0
TEXT
8
0
10
-0.090000
20
0.960000
40
0.080000
41
1.000000
1
P0.4/AD4
0
TEXT
8
0
10
0.700000
20
1.010000
40
0.080000
41
1.000000
1
35
0
POLYLINE
8
0
66
1
40
0.016000
41
0.016000
0
VERTEX
8
0
10
0.800000
20
0.900000
0
VERTEX
8
0
10
0.600000
20
0.900000
0
SEQEND
8
0
0
TEXT
8
0
10
-0.090000
20
0.860000
40
0.080000
41
1.000000
1
P0.5/AD5
0
TEXT
8
0
10
0.700000
20
0.910000
40
0.080000
41
1.000000
1
34
0
POLYLINE
8
0
66
1
40
0.016000
41
0.016000
0
VERTEX
8
0
10
0.800000
20
0.800000
0
VERTEX
8
0
10
0.600000
20
0.800000
0
SEQEND
8
0
0
TEXT
8
0
10
-0.090000
20
0.760000
40
0.080000
41
1.000000
1
P0.6/AD6
0
TEXT
8
0
10
0.700000
20
0.810000
40
0.080000
41
1.000000
1
33
0
POLYLINE
8
0
66
1
40
0.016000
41
0.016000
0
VERTEX
8
0
10
0.800000
20
0.700000
0
VERTEX
8
0
10
0.600000
20
0.700000
0
SEQEND
8
0
0
TEXT
8
0
10
-0.090000
20
0.660000
40
0.080000
41
1.000000
1
P0.7/AD7
0
TEXT
8
0
10
0.700000
20
0.710000
40
0.080000
41
1.000000
1
32
0
POLYLINE
8
0
66
1
40
0.016000
41
0.016000
0
VERTEX
8
0
10
0.800000
20
-0.200000
0
VERTEX
8
0
10
0.600000
20
-0.200000
0
SEQEND
8
0
0
TEXT
8
0
10
-0.090000
20
-0.240000
40
0.080000
41
1.000000
1
P2.7/A15
0
TEXT
8
0
10
0.700000
20
-0.190000
40
0.080000
41
1.000000
1
28
0
POLYLINE
8
0
66
1
40
0.016000
41
0.016000
0
VERTEX
8
0
10
0.800000
20
0.500000
0
VERTEX
8
0
10
0.600000
20
0.500000
0
SEQEND
8
0
0
TEXT
8
0
10
-0.010000
20
0.460000
40
0.080000
41
1.000000
1
P2.0/A8
0
TEXT
8
0
10
0.700000
20
0.510000
40
0.080000
41
1.000000
1
21
0
POLYLINE
8
0
66
1
40
0.016000
41
0.016000
0
VERTEX
8
0
10
0.800000
20
0.400000
0
VERTEX
8
0
10
0.600000
20
0.400000
0
SEQEND
8
0
0
TEXT
8
0
10
-0.010000
20
0.360000
40
0.080000
41
1.000000
1
P2.1/A9
0
TEXT
8
0
10
0.700000
20
0.410000
40
0.080000
41
1.000000
1
22
0
POLYLINE
8
0
66
1
40
0.016000
41
0.016000
0
VERTEX
8
0
10
0.800000
20
0.300000
0
VERTEX
8
0
10
0.600000
20
0.300000
0
SEQEND
8
0
0
TEXT
8
0
10
-0.090000
20
0.260000
40
0.080000
41
1.000000
1
P2.2/A10
0
TEXT
8
0
10
0.700000
20
0.310000
40
0.080000
41
1.000000
1
23
0
POLYLINE
8
0
66
1
40
0.016000
41
0.016000
0
VERTEX
8
0
10
0.800000
20
0.200000
0
VERTEX
8
0
10
0.600000
20
0.200000
0
SEQEND
8
0
0
TEXT
8
0
10
-0.090000
20
0.160000
40
0.080000
41
1.000000
1
P2.3/A11
0
TEXT
8
0
10
0.700000
20
0.210000
40
0.080000
41
1.000000
1
24
0
POLYLINE
8
0
66
1
40
0.016000
41
0.016000
0
VERTEX
8
0
10
0.800000
20
0.100000
0
VERTEX
8
0
10
0.600000
20
0.100000
0
SEQEND
8
0
0
TEXT
8
0
10
-0.090000
20
0.060000
40
0.080000
41
1.000000
1
P2.4/A12
0
TEXT
8
0
10
0.700000
20
0.110000
40
0.080000
41
1.000000
1
25
0
POLYLINE
8
0
66
1
40
0.016000
41
0.016000
0
VERTEX
8
0
10
0.800000
20
0.000000
0
VERTEX
8
0
10
0.600000
20
0.000000
0
SEQEND
8
0
0
TEXT
8
0
10
-0.090000
20
-0.040000
40
0.080000
41
1.000000
1
P2.5/A13
0
TEXT
8
0
10
0.700000
20
0.010000
40
0.080000
41
1.000000
1
26
0
POLYLINE
8
0
66
1
40
0.016000
41
0.016000
0
VERTEX
8
0
10
0.800000
20
-0.100000
0
VERTEX
8
0
10
0.600000
20
-0.100000
0
SEQEND
8
0
0
TEXT
8
0
10
-0.090000
20
-0.140000
40
0.080000
41
1.000000
1
P2.6/A14
0
TEXT
8
0
10
0.700000
20
-0.090000
40
0.080000
41
1.000000
1
27
0
POLYLINE
8
0
66
1
40
0.016000
41
0.016000
0
VERTEX
8
0
10
-1.000000
20
-0.400000
0
VERTEX
8
0
10
-0.800000
20
-0.400000
0
SEQEND
8
0
0
TEXT
8
0
10
-0.750000
20
-0.440000
40
0.080000
41
1.000000
1
P1.0
0
TEXT
8
0
10
-0.980000
20
-0.390000
40
0.080000
41
1.000000
1
1
0
POLYLINE
8
0
66
1
40
0.016000
41
0.016000
0
VERTEX
8
0
10
-1.000000
20
-0.500000
0
VERTEX
8
0
10
-0.800000
20
-0.500000
0
SEQEND
8
0
0
TEXT
8
0
10
-0.750000
20
-0.540000
40
0.080000
41
1.000000
1
P1.1
0
TEXT
8
0
10
-0.980000
20
-0.490000
40
0.080000
41
1.000000
1
2
0
POLYLINE
8
0
66
1
40
0.016000
41
0.016000
0
VERTEX
8
0
10
-1.000000
20
-0.600000
0
VERTEX
8
0
10
-0.800000
20
-0.600000
0
SEQEND
8
0
0
TEXT
8
0
10
-0.750000
20
-0.640000
40
0.080000
41
1.000000
1
P1.2
0
TEXT
8
0
10
-0.980000
20
-0.590000
40
0.080000
41
1.000000
1
3
0
POLYLINE
8
0
66
1
40
0.016000
41
0.016000
0
VERTEX
8
0
10
-1.000000
20
-0.700000
0
VERTEX
8
0
10
-0.800000
20
-0.700000
0
SEQEND
8
0
0
TEXT
8
0
10
-0.750000
20
-0.740000
40
0.080000
41
1.000000
1
P1.3
0
TEXT
8
0
10
-0.980000
20
-0.690000
40
0.080000
41
1.000000
1
4
0
POLYLINE
8
0
66
1
40
0.016000
41
0.016000
0
VERTEX
8
0
10
-1.000000
20
-0.800000
0
VERTEX
8
0
10
-0.800000
20
-0.800000
0
SEQEND
8
0
0
TEXT
8
0
10
-0.750000
20
-0.840000
40
0.080000
41
1.000000
1
P1.4
0
TEXT
8
0
10
-0.980000
20
-0.790000
40
0.080000
41
1.000000
1
5
0
POLYLINE
8
0
66
1
40
0.016000
41
0.016000
0
VERTEX
8
0
10
-1.000000
20
-0.900000
0
VERTEX
8
0
10
-0.800000
20
-0.900000
0
SEQEND
8
0
0
TEXT
8
0
10
-0.750000
20
-0.940000
40
0.080000
41
1.000000
1
P1.5
0
TEXT
8
0
10
-0.980000
20
-0.890000
40
0.080000
41
1.000000
1
6
0
POLYLINE
8
0
66
1
40
0.016000
41
0.016000
0
VERTEX
8
0
10
-1.000000
20
-1.000000
0
VERTEX
8
0
10
-0.800000
20
-1.000000
0
SEQEND
8
0
0
TEXT
8
0
10
-0.750000
20
-1.040000
40
0.080000
41
1.000000
1
P1.6
0
TEXT
8
0
10
-0.980000
20
-0.990000
40
0.080000
41
1.000000
1
7
0
POLYLINE
8
0
66
1
40
0.016000
41
0.016000
0
VERTEX
8
0
10
-1.000000
20
-1.100000
0
VERTEX
8
0
10
-0.800000
20
-1.100000
0
SEQEND
8
0
0
TEXT
8
0
10
-0.750000
20
-1.140000
40
0.080000
41
1.000000
1
P1.7
0
TEXT
8
0
10
-0.980000
20
-1.090000
40
0.080000
41
1.000000
1
8
0
POLYLINE
8
0
66
1
40
0.016000
41
0.016000
0
VERTEX
8
0
10
0.800000
20
-0.400000
0
VERTEX
8
0
10
0.600000
20
-0.400000
0
SEQEND
8
0
0
TEXT
8
0
10
-0.090000
20
-0.440000
40
0.080000
41
1.000000
1
P3.0/RXD
0
TEXT
8
0
10
0.700000
20
-0.390000
40
0.080000
41
1.000000
1
10
0
POLYLINE
8
0
66
1
40
0.016000
41
0.016000
0
VERTEX
8
0
10
0.800000
20
-0.500000
0
VERTEX
8
0
10
0.600000
20
-0.500000
0
SEQEND
8
0
0
TEXT
8
0
10
-0.090000
20
-0.540000
40
0.080000
41
1.000000
1
P3.1/TXD
0
TEXT
8
0
10
0.700000
20
-0.490000
40
0.080000
41
1.000000
1
11
0
POLYLINE
8
0
66
1
40
0.016000
41
0.016000
0
VERTEX
8
0
10
0.800000
20
-0.600000
0
VERTEX
8
0
10
0.600000
20
-0.600000
0
SEQEND
8
0
0
TEXT
8
0
10
-0.170000
20
-0.640000
40
0.080000
41
1.000000
1
P3.2/INT0
0
TEXT
8
0
10
0.700000
20
-0.590000
40
0.080000
41
1.000000
1
12
0
POLYLINE
8
0
66
1
40
0.016000
41
0.016000
0
VERTEX
8
0
10
0.800000
20
-0.700000
0
VERTEX
8
0
10
0.600000
20
-0.700000
0
SEQEND
8
0
0
TEXT
8
0
10
-0.170000
20
-0.740000
40
0.080000
41
1.000000
1
P3.3/INT1
0
TEXT
8
0
10
0.700000
20
-0.690000
40
0.080000
41
1.000000
1
13
0
POLYLINE
8
0
66
1
40
0.016000
41
0.016000
0
VERTEX
8
0
10
0.800000
20
-0.800000
0
VERTEX
8
0
10
0.600000
20
-0.800000
0
SEQEND
8
0
0
TEXT
8
0
10
-0.010000
20
-0.840000
40
0.080000
41
1.000000
1
P3.4/T0
0
TEXT
8
0
10
0.700000
20
-0.790000
40
0.080000
41
1.000000
1
14
0
POLYLINE
8
0
66
1
40
0.016000
41
0.016000
0
VERTEX
8
0
10
0.800000
20
-1.100000
0
VERTEX
8
0
10
0.600000
20
-1.100000
0
SEQEND
8
0
0
TEXT
8
0
10
-0.010000
20
-1.140000
40
0.080000
41
1.000000
1
P3.7/RD
0
TEXT
8
0
10
0.700000
20
-1.090000
40
0.080000
41
1.000000
1
17
0
POLYLINE
8
0
66
1
40
0.016000
41
0.016000
0
VERTEX
8
0
10
0.800000
20
-1.000000
0
VERTEX
8
0
10
0.600000
20
-1.000000
0
SEQEND
8
0
0
TEXT
8
0
10
-0.010000
20
-1.040000
40
0.080000
41
1.000000
1
P3.6/WR
0
TEXT
8
0
10
0.700000
20
-0.990000
40
0.080000
41
1.000000
1
16
0
POLYLINE
8
0
66
1
40
0.016000
41
0.016000
0
VERTEX
8
0
10
0.800000
20
-0.900000
0
VERTEX
8
0
10
0.600000
20
-0.900000
0
SEQEND
8
0
0
TEXT
8
0
10
-0.010000
20
-0.940000
40
0.080000
41
1.000000
1
P3.5/T1
0
TEXT
8
0
10
0.700000
20
-0.890000
40
0.080000
41
1.000000
1
15
0
TEXT
8
0
10
-0.808000
20
1.523000
40
0.120000
41
0.666667
1
U1
0
TEXT
8
0
10
-0.808000
20
-1.298000
40
0.080000
41
1.000000
1
80C51
0
POLYLINE
8
0
66
1
40
0.016000
41
0.016000
0
VERTEX
8
0
10
-2.170000
20
1.000000
0
VERTEX
8
0
10
-2.170000
20
0.800000
0
SEQEND
8
0
0
POLYLINE
8
0
66
1
40
0.016000
41
0.016000
0
VERTEX
8
0
10
-2.230000
20
1.000000
0
VERTEX
8
0
10
-2.230000
20
0.800000
0
SEQEND
8
0
0
POLYLINE
8
0
66
1
40
0.016000
41
0.016000
0
VERTEX
8
0
10
-2.230000
20
0.900000
0
VERTEX
8
0
10
-2.300000
20
0.900000
0
SEQEND
8
0
0
POLYLINE
8
0
66
1
40
0.016000
41
0.016000
0
VERTEX
8
0
10
-2.170000
20
0.900000
0
VERTEX
8
0
10
-2.100000
20
0.900000
0
SEQEND
8
0
0
POLYLINE
8
0
66
1
40
0.016000
41
0.016000
0
VERTEX
8
0
10
-2.000000
20
0.900000
0
VERTEX
8
0
10
-2.100000
20
0.900000
0
SEQEND
8
0
0
POLYLINE
8
0
66
1
40
0.016000
41
0.016000
0
VERTEX
8
0
10
-2.400000
20
0.900000
0
VERTEX
8
0
10
-2.300000
20
0.900000
0
SEQEND
8
0
0
TEXT
8
0
10
-2.308000
20
1.023000
40
0.120000
41
0.666667
1
C1
0
TEXT
8
0
10
-2.308000
20
0.702000
40
0.080000
41
1.000000
1
30pF
0
POLYLINE
8
0
66
1
40
0.016000
41
0.016000
0
VERTEX
8
0
10
-2.170000
20
1.700000
0
VERTEX
8
0
10
-2.170000
20
1.500000
0
SEQEND
8
0
0
POLYLINE
8
0
66
1
40
0.016000
41
0.016000
0
VERTEX
8
0
10
-2.230000
20
1.700000
0
VERTEX
8
0
10
-2.230000
20
1.500000
0
SEQEND
8
0
0
POLYLINE
8
0
66
1
40
0.016000
41
0.016000
0
VERTEX
8
0
10
-2.230000
20
1.600000
0
VERTEX
8
0
10
-2.300000
20
1.600000
0
SEQEND
8
0
0
POLYLINE
8
0
66
1
40
0.016000
41
0.016000
0
VERTEX
8
0
10
-2.170000
20
1.600000
0
VERTEX
8
0
10
-2.100000
20
1.600000
0
SEQEND
8
0
0
POLYLINE
8
0
66
1
40
0.016000
41
0.016000
0
VERTEX
8
0
10
-2.000000
20
1.600000
0
VERTEX
8
0
10
-2.100000
20
1.600000
0
SEQEND
8
0
0
POLYLINE
8
0
66
1
40
0.016000
41
0.016000
0
VERTEX
8
0
10
-2.400000
20
1.600000
0
VERTEX
8
0
10
-2.300000
20
1.600000
0
SEQEND
8
0
0
TEXT
8
0
10
-2.308000
20
1.723000
40
0.120000
41
0.666667
1
C2
0
TEXT
8
0
10
-2.308000
20
1.402000
40
0.080000
41
1.000000
1
30pF
0
POLYLINE
8
0
66
1
40
0.016000
41
0.016000
0
VERTEX
8
0
10
-2.340000
20
-0.900000
0
VERTEX
8
0
10
-2.260000
20
-0.900000
0
VERTEX
8
0
10
-2.260000
20
-0.600000
0
VERTEX
8
0
10
-2.340000
20
-0.600000
0
VERTEX
8
0
10
-2.340000
20
-0.900000
0
SEQEND
8
0
0
POLYLINE
8
0
66
1
40
0.016000
41
0.016000
0
VERTEX
8
0
10
-2.300000
20
-0.500000
0
VERTEX
8
0
10
-2.300000
20
-0.600000
0
SEQEND
8
0
0
POLYLINE
8
0
66
1
40
0.016000
41
0.016000
0
VERTEX
8
0
10
-2.300000
20
-1.000000
0
VERTEX
8
0
10
-2.300000
20
-0.900000
0
SEQEND
8
0
0
TEXT
8
0
10
-2.202000
20
-0.727000
40
0.120000
41
0.666667
1
R1
0
TEXT
8
0
10
-2.202000
20
-0.832000
40
0.080000
41
1.000000
1
10k
0
CIRCLE
8
0
10
-2.800000
20
-0.320000
40
0.030000
0
CIRCLE
8
0
10
-2.800000
20
-0.080000
40
0.030000
0
POLYLINE
8
0
66
1
40
0.016000
41
0.016000
0
VERTEX
8
0
10
-2.880000
20
-0.060000
0
VERTEX
8
0
10
-2.880000
20
-0.340000
0
SEQEND
8
0
0
POLYLINE
8
0
66
1
40
0.016000
41
0.016000
0
VERTEX
8
0
10
-2.930000
20
-0.280000
0
VERTEX
8
0
10
-2.880000
20
-0.280000
0
VERTEX
8
0
10
-2.880000
20
-0.120000
0
VERTEX
8
0
10
-2.930000
20
-0.120000
0
VERTEX
8
0
10
-2.930000
20
-0.280000
0
SEQEND
8
0
0
POLYLINE
8
0
66
1
40
0.016000
41
0.016000
0
VERTEX
8
0
10
-2.800000
20
0.050000
0
VERTEX
8
0
10
-2.800000
20
-0.050000
0
SEQEND
8
0
0
POLYLINE
8
0
66
1
40
0.016000
41
0.016000
0
VERTEX
8
0
10
-2.800000
20
-0.450000
0
VERTEX
8
0
10
-2.800000
20
-0.350000
0
SEQEND
8
0
0
CIRCLE
8
0
10
-2.900000
20
-0.400000
40
0.040000
0
POLYLINE
8
0
66
1
40
0.008000
41
0.008000
0
VERTEX
8
0
10
-2.880000
20
-0.400000
0
VERTEX
8
0
10
-2.920000
20
-0.400000
0
SEQEND
8
0
0
POLYLINE
8
0
66
1
40
0.008000
41
0.008000
0
VERTEX
8
0
10
-2.880000
20
-0.400000
0
VERTEX
8
0
10
-2.890000
20
-0.390000
0
SEQEND
8
0
0
POLYLINE
8
0
66
1
40
0.008000
41
0.008000
0
VERTEX
8
0
10
-2.880000
20
-0.400000
0
VERTEX
8
0
10
-2.890000
20
-0.410000
0
SEQEND
8
0
0
POLYLINE
8
0
66
1
40
0.008000
41
0.008000
0
VERTEX
8
0
10
-2.910000
20
-0.390000
0
VERTEX
8
0
10
-2.920000
20
-0.400000
0
VERTEX
8
0
10
-2.910000
20
-0.410000
0
SEQEND
8
0
0
POLYLINE
8
0
66
1
40
0.016000
41
0.016000
0
VERTEX
8
0
10
2.500000
20
1.060000
0
VERTEX
8
0
10
2.800000
20
1.060000
0
VERTEX
8
0
10
2.800000
20
1.140000
0
VERTEX
8
0
10
2.500000
20
1.140000
0
VERTEX
8
0
10
2.500000
20
1.060000
0
SEQEND
8
0
0
POLYLINE
8
0
66
1
40
0.016000
41
0.016000
0
VERTEX
8
0
10
2.400000
20
1.100000
0
VERTEX
8
0
10
2.500000
20
1.100000
0
SEQEND
8
0
0
POLYLINE
8
0
66
1
40
0.016000
41
0.016000
0
VERTEX
8
0
10
2.900000
20
1.100000
0
VERTEX
8
0
10
2.800000
20
1.100000
0
SEQEND
8
0
0
TEXT
8
0
10
2.492000
20
1.163000
40
0.120000
41
0.666667
1
R2
0
TEXT
8
0
10
2.492000
20
0.962000
40
0.080000
41
1.000000
1
330
0
POLYLINE
8
0
66
1
40
0.016000
41
0.016000
0
VERTEX
8
0
10
2.500000
20
0.760000
0
VERTEX
8
0
10
2.800000
20
0.760000
0
VERTEX
8
0
10
2.800000
20
0.840000
0
VERTEX
8
0
10
2.500000
20
0.840000
0
VERTEX
8
0
10
2.500000
20
0.760000
0
SEQEND
8
0
0
POLYLINE
8
0
66
1
40
0.016000
41
0.016000
0
VERTEX
8
0
10
2.400000
20
0.800000
0
VERTEX
8
0
10
2.500000
20
0.800000
0
SEQEND
8
0
0
POLYLINE
8
0
66
1
40
0.016000
41
0.016000
0
VERTEX
8
0
10
2.900000
20
0.800000
0
VERTEX
8
0
10
2.800000
20
0.800000
0
SEQEND
8
0
0
TEXT
8
0
10
2.492000
20
0.863000
40
0.120000
41
0.666667
1
R3
0
TEXT
8
0
10
2.492000
20
0.662000
40
0.080000
41
1.000000
1
330
0
POLYLINE
8
0
66
1
40
0.016000
41
0.016000
0
VERTEX
8
0
10
2.500000
20
0.460000
0
VERTEX
8
0
10
2.800000
20
0.460000
0
VERTEX
8
0
10
2.800000
20
0.540000
0
VERTEX
8
0
10
2.500000
20
0.540000
0
VERTEX
8
0
10
2.500000
20
0.460000
0
SEQEND
8
0
0
POLYLINE
8
0
66
1
40
0.016000
41
0.016000
0
VERTEX
8
0
10
2.400000
20
0.500000
0
VERTEX
8
0
10
2.500000
20
0.500000
0
SEQEND
8
0
0
POLYLINE
8
0
66
1
40
0.016000
41
0.016000
0
VERTEX
8
0
10
2.900000
20
0.500000
0
VERTEX
8
0
10
2.800000
20
0.500000
0
SEQEND
8
0
0
TEXT
8
0
10
2.492000
20
0.563000
40
0.120000
41
0.666667
1
R4
0
TEXT
8
0
10
2.492000
20
0.362000
40
0.080000
41
1.000000
1
330
0
POLYLINE
8
0
66
1
40
0.016000
41
0.016000
0
VERTEX
8
0
10
2.500000
20
0.160000
0
VERTEX
8
0
10
2.800000
20
0.160000
0
VERTEX
8
0
10
2.800000
20
0.240000
0
VERTEX
8
0
10
2.500000
20
0.240000
0
VERTEX
8
0
10
2.500000
20
0.160000
0
SEQEND
8
0
0
POLYLINE
8
0
66
1
40
0.016000
41
0.016000
0
VERTEX
8
0
10
2.400000
20
0.200000
0
VERTEX
8
0
10
2.500000
20
0.200000
0
SEQEND
8
0
0
POLYLINE
8
0
66
1
40
0.016000
41
0.016000
0
VERTEX
8
0
10
2.900000
20
0.200000
0
VERTEX
8
0
10
2.800000
20
0.200000
0
SEQEND
8
0
0
TEXT
8
0
10
2.492000
20
0.263000
40
0.120000
41
0.666667
1
R5
0
TEXT
8
0
10
2.492000
20
0.062000
40
0.080000
41
1.000000
1
330
0
POLYLINE
8
0
66
1
40
0.016000
41
0.016000
0
VERTEX
8
0
10
2.500000
20
-0.140000
0
VERTEX
8
0
10
2.800000
20
-0.140000
0
VERTEX
8
0
10
2.800000
20
-0.060000
0
VERTEX
8
0
10
2.500000
20
-0.060000
0
VERTEX
8
0
10
2.500000
20
-0.140000
0
SEQEND
8
0
0
POLYLINE
8
0
66
1
40
0.016000
41
0.016000
0
VERTEX
8
0
10
2.400000
20
-0.100000
0
VERTEX
8
0
10
2.500000
20
-0.100000
0
SEQEND
8
0
0
POLYLINE
8
0
66
1
40
0.016000
41
0.016000
0
VERTEX
8
0
10
2.900000
20
-0.100000
0
VERTEX
8
0
10
2.800000
20
-0.100000
0
SEQEND
8
0
0
TEXT
8
0
10
2.492000
20
-0.037000
40
0.120000
41
0.666667
1
R6
0
TEXT
8
0
10
2.492000
20
-0.238000
40
0.080000
41
1.000000
1
330
0
POLYLINE
8
0
66
1
40
0.016000
41
0.016000
0
VERTEX
8
0
10
2.500000
20
-0.440000
0
VERTEX
8
0
10
2.800000
20
-0.440000
0
VERTEX
8
0
10
2.800000
20
-0.360000
0
VERTEX
8
0
10
2.500000
20
-0.360000
0
VERTEX
8
0
10
2.500000
20
-0.440000
0
SEQEND
8
0
0
POLYLINE
8
0
66
1
40
0.016000
41
0.016000
0
VERTEX
8
0
10
2.400000
20
-0.400000
0
VERTEX
8
0
10
2.500000
20
-0.400000
0
SEQEND
8
0
0
POLYLINE
8
0
66
1
40
0.016000
41
0.016000
0
VERTEX
8
0
10
2.900000
20
-0.400000
0
VERTEX
8
0
10
2.800000
20
-0.400000
0
SEQEND
8
0
0
TEXT
8
0
10
2.492000
20
-0.337000
40
0.120000
41
0.666667
1
R7
0
TEXT
8
0
10
2.492000
20
-0.538000
40
0.080000
41
1.000000
1
330
0
POLYLINE
8
0
66
1
40
0.016000
41
0.016000
0
VERTEX
8
0
10
2.500000
20
-0.740000
0
VERTEX
8
0
10
2.800000
20
-0.740000
0
VERTEX
8
0
10
2.800000
20
-0.660000
0
VERTEX
8
0
10
2.500000
20
-0.660000
0
VERTEX
8
0
10
2.500000
20
-0.740000
0
SEQEND
8
0
0
POLYLINE
8
0
66
1
40
0.016000
41
0.016000
0
VERTEX
8
0
10
2.400000
20
-0.700000
0
VERTEX
8
0
10
2.500000
20
-0.700000
0
SEQEND
8
0
0
POLYLINE
8
0
66
1
40
0.016000
41
0.016000
0
VERTEX
8
0
10
2.900000
20
-0.700000
0
VERTEX
8
0
10
2.800000
20
-0.700000
0
SEQEND
8
0
0
TEXT
8
0
10
2.492000
20
-0.637000
40
0.120000
41
0.666667
1
R8
0
TEXT
8
0
10
2.492000
20
-0.838000
40
0.080000
41
1.000000
1
330
0
POLYLINE
8
0
66
1
40
0.016000
41
0.016000
0
VERTEX
8
0
10
2.500000
20
-1.040000
0
VERTEX
8
0
10
2.800000
20
-1.040000
0
VERTEX
8
0
10
2.800000
20
-0.960000
0
VERTEX
8
0
10
2.500000
20
-0.960000
0
VERTEX
8
0
10
2.500000
20
-1.040000
0
SEQEND
8
0
0
POLYLINE
8
0
66
1
40
0.016000
41
0.016000
0
VERTEX
8
0
10
2.400000
20
-1.000000
0
VERTEX
8
0
10
2.500000
20
-1.000000
0
SEQEND
8
0
0
POLYLINE
8
0
66
1
40
0.016000
41
0.016000
0
VERTEX
8
0
10
2.900000
20
-1.000000
0
VERTEX
8
0
10
2.800000
20
-1.000000
0
SEQEND
8
0
0
TEXT
8
0
10
2.492000
20
-0.937000
40
0.120000
41
0.666667
1
R9
0
TEXT
8
0
10
2.492000
20
-1.138000
40
0.080000
41
1.000000
1
330
0
POLYLINE
8
0
66
1
40
0.016000
41
0.016000
0
VERTEX
8
0
10
2.950000
20
1.400000
0
VERTEX
8
0
10
3.000000
20
1.500000
0
VERTEX
8
0
10
3.050000
20
1.400000
0
VERTEX
8
0
10
2.950000
20
1.400000
0
SEQEND
8
0
0
POLYLINE
8
0
66
1
40
0.016000
41
0.016000
0
VERTEX
8
0
10
3.000000
20
1.300000
0
VERTEX
8
0
10
3.000000
20
1.500000
0
SEQEND
8
0
0
POLYLINE
8
0
66
1
40
0.016000
41
0.016000
0
VERTEX
8
0
10
-2.300000
20
-1.100000
0
VERTEX
8
0
10
-2.300000
20
-1.200000
0
SEQEND
8
0
0
POLYLINE
8
0
66
1
40
0.016000
41
0.016000
0
VERTEX
8
0
10
-2.400000
20
-1.200000
0
VERTEX
8
0
10
-2.200000
20
-1.200000
0
SEQEND
8
0
0
POLYLINE
8
0
66
1
40
0.016000
41
0.016000
0
VERTEX
8
0
10
-2.350000
20
-1.250000
0
VERTEX
8
0
10
-2.250000
20
-1.250000
0
SEQEND
8
0
0
POLYLINE
8
0
66
1
40
0.016000
41
0.016000
0
VERTEX
8
0
10
-2.310000
20
-1.300000
0
VERTEX
8
0
10
-2.290000
20
-1.300000
0
SEQEND
8
0
0
POLYLINE
8
0
66
1
40
0.016000
41
0.016000
0
VERTEX
8
0
10
-2.350000
20
0.400000
0
VERTEX
8
0
10
-2.300000
20
0.500000
0
VERTEX
8
0
10
-2.250000
20
0.400000
0
VERTEX
8
0
10
-2.350000
20
0.400000
0
SEQEND
8
0
0
POLYLINE
8
0
66
1
40
0.016000
41
0.016000
0
VERTEX
8
0
10
-2.300000
20
0.300000
0
VERTEX
8
0
10
-2.300000
20
0.500000
0
SEQEND
8
0
0
POLYLINE
8
0
66
1
40
0.016000
41
0.016000
0
VERTEX
8
0
10
-1.550000
20
1.400000
0
VERTEX
8
0
10
-1.850000
20
1.400000
0
SEQEND
8
0
0
POLYLINE
8
0
66
1
40
0.016000
41
0.016000
0
VERTEX
8
0
10
-1.550000
20
1.200000
0
VERTEX
8
0
10
-1.850000
20
1.200000
0
SEQEND
8
0
0
POLYLINE
8
0
66
1
40
0.016000
41
0.016000
0
VERTEX
8
0
10
-1.800000
20
1.250000
0
VERTEX
8
0
10
-1.600000
20
1.250000
0
VERTEX
8
0
10
-1.600000
20
1.350000
0
VERTEX
8
0
10
-1.800000
20
1.350000
0
VERTEX
8
0
10
-1.800000
20
1.250000
0
SEQEND
8
0
0
POLYLINE
8
0
66
1
40
0.016000
41
0.016000
0
VERTEX
8
0
10
-1.700000
20
1.500000
0
VERTEX
8
0
10
-1.700000
20
1.400000
0
SEQEND
8
0
0
TEXT
8
0
10
-1.710000
20
1.500000
40
0.080000
41
1.000000
50
90.000000
1
1
0
POLYLINE
8
0
66
1
40
0.016000
41
0.016000
0
VERTEX
8
0
10
-1.700000
20
1.100000
0
VERTEX
8
0
10
-1.700000
20
1.200000
0
SEQEND
8
0
0
TEXT
8
0
10
-1.710000
20
1.020000
40
0.080000
41
1.000000
50
90.000000
1
2
0
TEXT
8
0
10
-1.492000
20
1.273000
40
0.120000
41
0.666667
1
X1
0
TEXT
8
0
10
-1.492000
20
1.168000
40
0.080000
41
1.000000
1
CRYSTAL
0
CIRCLE
8
0
10
-1.700000
20
0.900000
40
0.020000
0
CIRCLE
8
0
10
-1.700000
20
1.600000
40
0.020000
0
POLYLINE
8
0
66
1
40
0.016000
41
0.016000
0
VERTEX
8
0
10
-3.200000
20
1.200000
0
VERTEX
8
0
10
-3.200000
20
1.100000
0
SEQEND
8
0
0
POLYLINE
8
0
66
1
40
0.016000
41
0.016000
0
VERTEX
8
0
10
-3.300000
20
1.100000
0
VERTEX
8
0
10
-3.100000
20
1.100000
0
SEQEND
8
0
0
POLYLINE
8
0
66
1
40
0.016000
41
0.016000
0
VERTEX
8
0
10
-3.250000
20
1.050000
0
VERTEX
8
0
10
-3.150000
20
1.050000
0
SEQEND
8
0
0
POLYLINE
8
0
66
1
40
0.016000
41
0.016000
0
VERTEX
8
0
10
-3.210000
20
1.000000
0
VERTEX
8
0
10
-3.190000
20
1.000000
0
SEQEND
8
0
0
CIRCLE
8
0
10
-2.600000
20
1.300000
40
0.020000
0
POLYLINE
8
0
66
1
40
0.016000
41
0.016000
0
VERTEX
8
0
10
-2.200000
20
-0.030000
0
VERTEX
8
0
10
-2.400000
20
-0.030000
0
SEQEND
8
0
0
POLYLINE
8
0
66
1
40
0.016000
41
0.016000
0
VERTEX
8
0
10
-2.200000
20
0.030000
0
VERTEX
8
0
10
-2.400000
20
0.030000
0
SEQEND
8
0
0
POLYLINE
8
0
66
1
40
0.016000
41
0.016000
0
VERTEX
8
0
10
-2.300000
20
0.030000
0
VERTEX
8
0
10
-2.300000
20
0.100000
0
SEQEND
8
0
0
POLYLINE
8
0
66
1
40
0.016000
41
0.016000
0
VERTEX
8
0
10
-2.300000
20
-0.030000
0
VERTEX
8
0
10
-2.300000
20
-0.100000
0
SEQEND
8
0
0
POLYLINE
8
0
66
1
40
0.016000
41
0.016000
0
VERTEX
8
0
10
-2.300000
20
-0.200000
0
VERTEX
8
0
10
-2.300000
20
-0.100000
0
SEQEND
8
0
0
POLYLINE
8
0
66
1
40
0.016000
41
0.016000
0
VERTEX
8
0
10
-2.300000
20
0.200000
0
VERTEX
8
0
10
-2.300000
20
0.100000
0
SEQEND
8
0
0
TEXT
8
0
10
-2.142000
20
-0.027000
40
0.120000
41
0.666667
1
C3
0
TEXT
8
0
10
-2.142000
20
-0.132000
40
0.080000
41
1.000000
1
10uF
0
CIRCLE
8
0
10
-2.300000
20
0.300000
40
0.020000
0
CIRCLE
8
0
10
-2.300000
20
-0.500000
40
0.020000
0
CIRCLE
8
0
10
-2.300000
20
-0.300000
40
0.020000
0
CIRCLE
8
0
10
3.000000
20
-0.700000
40
0.020000
0
CIRCLE
8
0
10
3.000000
20
-0.400000
40
0.020000
0
CIRCLE
8
0
10
3.000000
20
-0.100000
40
0.020000
0
CIRCLE
8
0
10
3.000000
20
0.200000
40
0.020000
0
CIRCLE
8
0
10
3.000000
20
0.500000
40
0.020000
0
CIRCLE
8
0
10
3.000000
20
0.800000
40
0.020000
0
CIRCLE
8
0
10
3.000000
20
1.100000
40
0.020000
0
CIRCLE
8
0
10
2.000000
20
1.100000
40
0.120416
0
POLYLINE
8
0
66
1
40
0.015000
41
0.015000
0
VERTEX
8
0
10
1.950000
20
1.050000
0
VERTEX
8
0
10
1.950000
20
1.150000
0
SEQEND
8
0
0
POLYLINE
8
0
66
1
40
0.016000
41
0.016000
0
VERTEX
8
0
10
2.120000
20
1.100000
0
VERTEX
8
0
10
2.030000
20
1.100000
0
SEQEND
8
0
0
POLYLINE
8
0
66
1
40
0.016000
41
0.016000
0
VERTEX
8
0
10
1.950000
20
1.100000
0
VERTEX
8
0
10
1.880000
20
1.100000
0
SEQEND
8
0
0
POLYLINE
8
0
66
1
40
0.015000
41
0.015000
0
VERTEX
8
0
10
1.950000
20
1.100000
0
VERTEX
8
0
10
2.030000
20
1.160000
0
VERTEX
8
0
10
2.030000
20
1.040000
0
VERTEX
8
0
10
1.950000
20
1.100000
0
SEQEND
8
0
0
POLYLINE
8
0
66
1
40
0.016000
41
0.016000
0
VERTEX
8
0
10
2.200000
20
1.100000
0
VERTEX
8
0
10
2.100000
20
1.100000
0
SEQEND
8
0
0
POLYLINE
8
0
66
1
40
0.016000
41
0.016000
0
VERTEX
8
0
10
1.800000
20
1.100000
0
VERTEX
8
0
10
1.900000
20
1.100000
0
SEQEND
8
0
0
TEXT
8
0
10
2.172000
20
1.143000
40
0.120000
41
0.666667
1
D1
0
CIRCLE
8
0
10
2.000000
20
0.800000
40
0.120000
0
POLYLINE
8
0
66
1
40
0.015000
41
0.015000
0
VERTEX
8
0
10
1.950000
20
0.750000
0
VERTEX
8
0
10
1.950000
20
0.850000
0
SEQEND
8
0
0
POLYLINE
8
0
66
1
40
0.016000
41
0.016000
0
VERTEX
8
0
10
2.120000
20
0.800000
0
VERTEX
8
0
10
2.030000
20
0.800000
0
SEQEND
8
0
0
POLYLINE
8
0
66
1
40
0.016000
41
0.016000
0
VERTEX
8
0
10
1.950000
20
0.800000
0
VERTEX
8
0
10
1.880000
20
0.800000
0
SEQEND
8
0
0
POLYLINE
8
0
66
1
40
0.015000
41
0.015000
0
VERTEX
8
0
10
1.950000
20
0.800000
0
VERTEX
8
0
10
2.030000
20
0.860000
0
VERTEX
8
0
10
2.030000
20
0.740000
0
VERTEX
8
0
10
1.950000
20
0.800000
0
SEQEND
8
0
0
POLYLINE
8
0
66
1
40
0.016000
41
0.016000
0
VERTEX
8
0
10
2.200000
20
0.800000
0
VERTEX
8
0
10
2.100000
20
0.800000
0
SEQEND
8
0
0
POLYLINE
8
0
66
1
40
0.016000
41
0.016000
0
VERTEX
8
0
10
1.800000
20
0.800000
0
VERTEX
8
0
10
1.900000
20
0.800000
0
SEQEND
8
0
0
TEXT
8
0
10
2.172000
20
0.843000
40
0.120000
41
0.666667
1
D2
0
CIRCLE
8
0
10
2.000000
20
0.500000
40
0.120000
0
POLYLINE
8
0
66
1
40
0.015000
41
0.015000
0
VERTEX
8
0
10
1.950000
20
0.450000
0
VERTEX
8
0
10
1.950000
20
0.550000
0
SEQEND
8
0
0
POLYLINE
8
0
66
1
40
0.016000
41
0.016000
0
VERTEX
8
0
10
2.120000
20
0.500000
0
VERTEX
8
0
10
2.030000
20
0.500000
0
SEQEND
8
0
0
POLYLINE
8
0
66
1
40
0.016000
41
0.016000
0
VERTEX
8
0
10
1.950000
20
0.500000
0
VERTEX
8
0
10
1.880000
20
0.500000
0
SEQEND
8
0
0
POLYLINE
8
0
66
1
40
0.015000
41
0.015000
0
VERTEX
8
0
10
1.950000
20
0.500000
0
VERTEX
8
0
10
2.030000
20
0.560000
0
VERTEX
8
0
10
2.030000
20
0.440000
0
VERTEX
8
0
10
1.950000
20
0.500000
0
SEQEND
8
0
0
POLYLINE
8
0
66
1
40
0.016000
41
0.016000
0
VERTEX
8
0
10
2.200000
20
0.500000
0
VERTEX
8
0
10
2.100000
20
0.500000
0
SEQEND
8
0
0
POLYLINE
8
0
66
1
40
0.016000
41
0.016000
0
VERTEX
8
0
10
1.800000
20
0.500000
0
VERTEX
8
0
10
1.900000
20
0.500000
0
SEQEND
8
0
0
TEXT
8
0
10
2.172000
20
0.543000
40
0.120000
41
0.666667
1
D3
0
CIRCLE
8
0
10
2.000000
20
0.200000
40
0.120000
0
POLYLINE
8
0
66
1
40
0.015000
41
0.015000
0
VERTEX
8
0
10
1.950000
20
0.150000
0
VERTEX
8
0
10
1.950000
20
0.250000
0
SEQEND
8
0
0
POLYLINE
8
0
66
1
40
0.016000
41
0.016000
0
VERTEX
8
0
10
2.120000
20
0.200000
0
VERTEX
8
0
10
2.030000
20
0.200000
0
SEQEND
8
0
0
POLYLINE
8
0
66
1
40
0.016000
41
0.016000
0
VERTEX
8
0
10
1.950000
20
0.200000
0
VERTEX
8
0
10
1.880000
20
0.200000
0
SEQEND
8
0
0
POLYLINE
8
0
66
1
40
0.015000
41
0.015000
0
VERTEX
8
0
10
1.950000
20
0.200000
0
VERTEX
8
0
10
2.030000
20
0.260000
0
VERTEX
8
0
10
2.030000
20
0.140000
0
VERTEX
8
0
10
1.950000
20
0.200000
0
SEQEND
8
0
0
POLYLINE
8
0
66
1
40
0.016000
41
0.016000
0
VERTEX
8
0
10
2.200000
20
0.200000
0
VERTEX
8
0
10
2.100000
20
0.200000
0
SEQEND
8
0
0
POLYLINE
8
0
66
1
40
0.016000
41
0.016000
0
VERTEX
8
0
10
1.800000
20
0.200000
0
VERTEX
8
0
10
1.900000
20
0.200000
0
SEQEND
8
0
0
TEXT
8
0
10
2.172000
20
0.243000
40
0.120000
41
0.666667
1
D4
0
CIRCLE
8
0
10
2.000000
20
-0.100000
40
0.120000
0
POLYLINE
8
0
66
1
40
0.015000
41
0.015000
0
VERTEX
8
0
10
1.950000
20
-0.150000
0
VERTEX
8
0
10
1.950000
20
-0.050000
0
SEQEND
8
0
0
POLYLINE
8
0
66
1
40
0.016000
41
0.016000
0
VERTEX
8
0
10
2.120000
20
-0.100000
0
VERTEX
8
0
10
2.030000
20
-0.100000
0
SEQEND
8
0
0
POLYLINE
8
0
66
1
40
0.016000
41
0.016000
0
VERTEX
8
0
10
1.950000
20
-0.100000
0
VERTEX
8
0
10
1.880000
20
-0.100000
0
SEQEND
8
0
0
POLYLINE
8
0
66
1
40
0.015000
41
0.015000
0
VERTEX
8
0
10
1.950000
20
-0.100000
0
VERTEX
8
0
10
2.030000
20
-0.040000
0
VERTEX
8
0
10
2.030000
20
-0.160000
0
VERTEX
8
0
10
1.950000
20
-0.100000
0
SEQEND
8
0
0
POLYLINE
8
0
66
1
40
0.016000
41
0.016000
0
VERTEX
8
0
10
2.200000
20
-0.100000
0
VERTEX
8
0
10
2.100000
20
-0.100000
0
SEQEND
8
0
0
POLYLINE
8
0
66
1
40
0.016000
41
0.016000
0
VERTEX
8
0
10
1.800000
20
-0.100000
0
VERTEX
8
0
10
1.900000
20
-0.100000
0
SEQEND
8
0
0
TEXT
8
0
10
2.172000
20
-0.057000
40
0.120000
41
0.666667
1
D5
0
CIRCLE
8
0
10
2.000000
20
-0.400000
40
0.120000
0
POLYLINE
8
0
66
1
40
0.015000
41
0.015000
0
VERTEX
8
0
10
1.950000
20
-0.450000
0
VERTEX
8
0
10
1.950000
20
-0.350000
0
SEQEND
8
0
0
POLYLINE
8
0
66
1
40
0.016000
41
0.016000
0
VERTEX
8
0
10
2.120000
20
-0.400000
0
VERTEX
8
0
10
2.030000
20
-0.400000
0
SEQEND
8
0
0
POLYLINE
8
0
66
1
40
0.016000
41
0.016000
0
VERTEX
8
0
10
1.950000
20
-0.400000
0
VERTEX
8
0
10
1.880000
20
-0.400000
0
SEQEND
8
0
0
POLYLINE
8
0
66
1
40
0.015000
41
0.015000
0
VERTEX
8
0
10
1.950000
20
-0.400000
0
VERTEX
8
0
10
2.030000
20
-0.340000
0
VERTEX
8
0
10
2.030000
20
-0.460000
0
VERTEX
8
0
10
1.950000
20
-0.400000
0
SEQEND
8
0
0
POLYLINE
8
0
66
1
40
0.016000
41
0.016000
0
VERTEX
8
0
10
2.200000
20
-0.400000
0
VERTEX
8
0
10
2.100000
20
-0.400000
0
SEQEND
8
0
0
POLYLINE
8
0
66
1
40
0.016000
41
0.016000
0
VERTEX
8
0
10
1.800000
20
-0.400000
0
VERTEX
8
0
10
1.900000
20
-0.400000
0
SEQEND
8
0
0
TEXT
8
0
10
2.172000
20
-0.357000
40
0.120000
41
0.666667
1
D6
0
CIRCLE
8
0
10
2.000000
20
-0.700000
40
0.120000
0
POLYLINE
8
0
66
1
40
0.015000
41
0.015000
0
VERTEX
8
0
10
1.950000
20
-0.750000
0
VERTEX
8
0
10
1.950000
20
-0.650000
0
SEQEND
8
0
0
POLYLINE
8
0
66
1
40
0.016000
41
0.016000
0
VERTEX
8
0
10
2.120000
20
-0.700000
0
VERTEX
8
0
10
2.030000
20
-0.700000
0
SEQEND
8
0
0
POLYLINE
8
0
66
1
40
0.016000
41
0.016000
0
VERTEX
8
0
10
1.950000
20
-0.700000
0
VERTEX
8
0
10
1.880000
20
-0.700000
0
SEQEND
8
0
0
POLYLINE
8
0
66
1
40
0.015000
41
0.015000
0
VERTEX
8
0
10
1.950000
20
-0.700000
0
VERTEX
8
0
10
2.030000
20
-0.640000
0
VERTEX
8
0
10
2.030000
20
-0.760000
0
VERTEX
8
0
10
1.950000
20
-0.700000
0
SEQEND
8
0
0
POLYLINE
8
0
66
1
40
0.016000
41
0.016000
0
VERTEX
8
0
10
2.200000
20
-0.700000
0
VERTEX
8
0
10
2.100000
20
-0.700000
0
SEQEND
8
0
0
POLYLINE
8
0
66
1
40
0.016000
41
0.016000
0
VERTEX
8
0
10
1.800000
20
-0.700000
0
VERTEX
8
0
10
1.900000
20
-0.700000
0
SEQEND
8
0
0
TEXT
8
0
10
2.172000
20
-0.657000
40
0.120000
41
0.666667
1
D7
0
CIRCLE
8
0
10
2.000000
20
-1.000000
40
0.120000
0
POLYLINE
8
0
66
1
40
0.015000
41
0.015000
0
VERTEX
8
0
10
1.950000
20
-1.050000
0
VERTEX
8
0
10
1.950000
20
-0.950000
0
SEQEND
8
0
0
POLYLINE
8
0
66
1
40
0.016000
41
0.016000
0
VERTEX
8
0
10
2.120000
20
-1.000000
0
VERTEX
8
0
10
2.030000
20
-1.000000
0
SEQEND
8
0
0
POLYLINE
8
0
66
1
40
0.016000
41
0.016000
0
VERTEX
8
0
10
1.950000
20
-1.000000
0
VERTEX
8
0
10
1.880000
20
-1.000000
0
SEQEND
8
0
0
POLYLINE
8
0
66
1
40
0.015000
41
0.015000
0
VERTEX
8
0
10
1.950000
20
-1.000000
0
VERTEX
8
0
10
2.030000
20
-0.940000
0
VERTEX
8
0
10
2.030000
20
-1.060000
0
VERTEX
8
0
10
1.950000
20
-1.000000
0
SEQEND
8
0
0
POLYLINE
8
0
66
1
40
0.016000
41
0.016000
0
VERTEX
8
0
10
2.200000
20
-1.000000
0
VERTEX
8
0
10
2.100000
20
-1.000000
0
SEQEND
8
0
0
POLYLINE
8
0
66
1
40
0.016000
41
0.016000
0
VERTEX
8
0
10
1.800000
20
-1.000000
0
VERTEX
8
0
10
1.900000
20
-1.000000
0
SEQEND
8
0
0
TEXT
8
0
10
2.172000
20
-0.957000
40
0.120000
41
0.666667
1
D8
0
POLYLINE
8
0
66
1
40
0.016000
41
0.016000
0
VERTEX
8
0
10
2.400000
20
-2.450000
0
VERTEX
8
0
10
3.050000
20
-2.450000
0
VERTEX
8
0
10
3.050000
20
-1.500000
0
VERTEX
8
0
10
2.400000
20
-1.500000
0
VERTEX
8
0
10
2.400000
20
-2.450000
0
SEQEND
8
0
0
POLYLINE
8
0
66
1
40
0.000000
41
0.000000
0
VERTEX
8
0
10
2.570000
20
-1.630000
0
VERTEX
8
0
10
2.600000
20
-1.600000
0
VERTEX
8
0
10
2.870000
20
-1.600000
0
VERTEX
8
0
10
2.900000
20
-1.630000
0
VERTEX
8
0
10
2.870000
20
-1.660000
0
VERTEX
8
0
10
2.600000
20
-1.660000
0
VERTEX
8
0
10
2.570000
20
-1.630000
0
SEQEND
8
0
0
POLYLINE
8
0
66
1
40
0.000000
41
0.000000
0
VERTEX
8
0
10
2.880000
20
-1.670000
0
VERTEX
8
0
10
2.910000
20
-1.640000
0
VERTEX
8
0
10
2.940000
20
-1.670000
0
VERTEX
8
0
10
2.930000
20
-1.930000
0
VERTEX
8
0
10
2.900000
20
-1.960000
0
VERTEX
8
0
10
2.870000
20
-1.930000
0
VERTEX
8
0
10
2.880000
20
-1.670000
0
SEQEND
8
0
0
POLYLINE
8
0
66
1
40
0.000000
41
0.000000
0
VERTEX
8
0
10
2.870000
20
-2.010000
0
VERTEX
8
0
10
2.900000
20
-1.980000
0
VERTEX
8
0
10
2.930000
20
-2.010000
0
VERTEX
8
0
10
2.920000
20
-2.270000
0
VERTEX
8
0
10
2.890000
20
-2.300000
0
VERTEX
8
0
10
2.860000
20
-2.270000
0
VERTEX
8
0
10
2.870000
20
-2.010000
0
SEQEND
8
0
0
POLYLINE
8
0
66
1
40
0.000000
41
0.000000
0
VERTEX
8
0
10
2.550000
20
-2.310000
0
VERTEX
8
0
10
2.580000
20
-2.280000
0
VERTEX
8
0
10
2.850000
20
-2.280000
0
VERTEX
8
0
10
2.880000
20
-2.310000
0
VERTEX
8
0
10
2.850000
20
-2.340000
0
VERTEX
8
0
10
2.580000
20
-2.340000
0
VERTEX
8
0
10
2.550000
20
-2.310000
0
SEQEND
8
0
0
POLYLINE
8
0
66
1
40
0.000000
41
0.000000
0
VERTEX
8
0
10
2.520000
20
-2.010000
0
VERTEX
8
0
10
2.550000
20
-1.980000
0
VERTEX
8
0
10
2.580000
20
-2.010000
0
VERTEX
8
0
10
2.570000
20
-2.270000
0
VERTEX
8
0
10
2.540000
20
-2.300000
0
VERTEX
8
0
10
2.510000
20
-2.270000
0
VERTEX
8
0
10
2.520000
20
-2.010000
0
SEQEND
8
0
0
POLYLINE
8
0
66
1
40
0.000000
41
0.000000
0
VERTEX
8
0
10
2.530000
20
-1.670000
0
VERTEX
8
0
10
2.560000
20
-1.640000
0
VERTEX
8
0
10
2.590000
20
-1.670000
0
VERTEX
8
0
10
2.580000
20
-1.930000
0
VERTEX
8
0
10
2.550000
20
-1.960000
0
VERTEX
8
0
10
2.520000
20
-1.930000
0
VERTEX
8
0
10
2.530000
20
-1.670000
0
SEQEND
8
0
0
POLYLINE
8
0
66
1
40
0.000000
41
0.000000
0
VERTEX
8
0
10
2.560000
20
-1.970000
0
VERTEX
8
0
10
2.590000
20
-1.940000
0
VERTEX
8
0
10
2.860000
20
-1.940000
0
VERTEX
8
0
10
2.890000
20
-1.970000
0
VERTEX
8
0
10
2.860000
20
-2.000000
0
VERTEX
8
0
10
2.590000
20
-2.000000
0
VERTEX
8
0
10
2.560000
20
-1.970000
0
SEQEND
8
0
0
POLYLINE
8
0
66
1
40
0.016000
41
0.016000
0
VERTEX
8
0
10
2.300000
20
-1.700000
0
VERTEX
8
0
10
2.400000
20
-1.700000
0
SEQEND
8
0
0
POLYLINE
8
0
66
1
40
0.016000
41
0.016000
0
VERTEX
8
0
10
2.300000
20
-1.800000
0
VERTEX
8
0
10
2.400000
20
-1.800000
0
SEQEND
8
0
0
POLYLINE
8
0
66
1
40
0.016000
41
0.016000
0
VERTEX
8
0
10
2.300000
20
-1.900000
0
VERTEX
8
0
10
2.400000
20
-1.900000
0
SEQEND
8
0
0
POLYLINE
8
0
66
1
40
0.016000
41
0.016000
0
VERTEX
8
0
10
2.300000
20
-2.000000
0
VERTEX
8
0
10
2.400000
20
-2.000000
0
SEQEND
8
0
0
POLYLINE
8
0
66
1
40
0.016000
41
0.016000
0
VERTEX
8
0
10
2.300000
20
-2.100000
0
VERTEX
8
0
10
2.400000
20
-2.100000
0
SEQEND
8
0
0
POLYLINE
8
0
66
1
40
0.016000
41
0.016000
0
VERTEX
8
0
10
2.300000
20
-2.200000
0
VERTEX
8
0
10
2.400000
20
-2.200000
0
SEQEND
8
0
0
POLYLINE
8
0
66
1
40
0.016000
41
0.016000
0
VERTEX
8
0
10
2.300000
20
-2.300000
0
VERTEX
8
0
10
2.400000
20
-2.300000
0
SEQEND
8
0
0
POLYLINE
8
0
66
1
40
0.016000
41
0.016000
0
VERTEX
8
0
10
3.000000
20
-1.400000
0
VERTEX
8
0
10
3.000000
20
-1.500000
0
SEQEND
8
0
0
CIRCLE
8
0
10
3.000000
20
-1.000000
40
0.020000
0
CIRCLE
8
0
10
-0.280000
20
-1.700000
40
0.030000
0
CIRCLE
8
0
10
-0.520000
20
-1.700000
40
0.030000
0
POLYLINE
8
0
66
1
40
0.016000
41
0.016000
0
VERTEX
8
0
10
-0.540000
20
-1.620000
0
VERTEX
8
0
10
-0.260000
20
-1.620000
0
SEQEND
8
0
0
POLYLINE
8
0
66
1
40
0.016000
41
0.016000
0
VERTEX
8
0
10
-0.480000
20
-1.620000
0
VERTEX
8
0
10
-0.320000
20
-1.620000
0
VERTEX
8
0
10
-0.320000
20
-1.570000
0
VERTEX
8
0
10
-0.480000
20
-1.570000
0
VERTEX
8
0
10
-0.480000
20
-1.620000
0
SEQEND
8
0
0
POLYLINE
8
0
66
1
40
0.016000
41
0.016000
0
VERTEX
8
0
10
-0.650000
20
-1.700000
0
VERTEX
8
0
10
-0.550000
20
-1.700000
0
SEQEND
8
0
0
POLYLINE
8
0
66
1
40
0.016000
41
0.016000
0
VERTEX
8
0
10
-0.150000
20
-1.700000
0
VERTEX
8
0
10
-0.250000
20
-1.700000
0
SEQEND
8
0
0
CIRCLE
8
0
10
-0.200000
20
-1.600000
40
0.040000
0
POLYLINE
8
0
66
1
40
0.008000
41
0.008000
0
VERTEX
8
0
10
-0.200000
20
-1.620000
0
VERTEX
8
0
10
-0.200000
20
-1.580000
0
SEQEND
8
0
0
POLYLINE
8
0
66
1
40
0.008000
41
0.008000
0
VERTEX
8
0
10
-0.200000
20
-1.620000
0
VERTEX
8
0
10
-0.210000
20
-1.610000
0
SEQEND
8
0
0
POLYLINE
8
0
66
1
40
0.008000
41
0.008000
0
VERTEX
8
0
10
-0.200000
20
-1.620000
0
VERTEX
8
0
10
-0.190000
20
-1.610000
0
SEQEND
8
0
0
POLYLINE
8
0
66
1
40
0.008000
41
0.008000
0
VERTEX
8
0
10
-0.210000
20
-1.590000
0
VERTEX
8
0
10
-0.200000
20
-1.580000
0
VERTEX
8
0
10
-0.190000
20
-1.590000
0
SEQEND
8
0
0
POLYLINE
8
0
66
1
40
0.016000
41
0.016000
0
VERTEX
8
0
10
-0.900000
20
-2.900000
0
VERTEX
8
0
10
-0.900000
20
-3.000000
0
SEQEND
8
0
0
POLYLINE
8
0
66
1
40
0.016000
41
0.016000
0
VERTEX
8
0
10
-1.000000
20
-3.000000
0
VERTEX
8
0
10
-0.800000
20
-3.000000
0
SEQEND
8
0
0
POLYLINE
8
0
66
1
40
0.016000
41
0.016000
0
VERTEX
8
0
10
-0.950000
20
-3.050000
0
VERTEX
8
0
10
-0.850000
20
-3.050000
0
SEQEND
8
0
0
POLYLINE
8
0
66
1
40
0.016000
41
0.016000
0
VERTEX
8
0
10
-0.910000
20
-3.100000
0
VERTEX
8
0
10
-0.890000
20
-3.100000
0
SEQEND
8
0
0
CIRCLE
8
0
10
1.200000
20
-0.400000
40
0.020000
0
CIRCLE
8
0
10
1.200000
20
-0.500000
40
0.020000
0
POLYLINE
8
0
66
1
40
0.016000
41
0.016000
0
VERTEX
8
0
10
0.200000
20
-1.740000
0
VERTEX
8
0
10
0.500000
20
-1.740000
0
VERTEX
8
0
10
0.500000
20
-1.660000
0
VERTEX
8
0
10
0.200000
20
-1.660000
0
VERTEX
8
0
10
0.200000
20
-1.740000
0
SEQEND
8
0
0
POLYLINE
8
0
66
1
40
0.016000
41
0.016000
0
VERTEX
8
0
10
0.100000
20
-1.700000
0
VERTEX
8
0
10
0.200000
20
-1.700000
0
SEQEND
8
0
0
POLYLINE
8
0
66
1
40
0.016000
41
0.016000
0
VERTEX
8
0
10
0.600000
20
-1.700000
0
VERTEX
8
0
10
0.500000
20
-1.700000
0
SEQEND
8
0
0
TEXT
8
0
10
0.192000
20
-1.637000
40
0.120000
41
0.666667
1
R10
0
TEXT
8
0
10
0.192000
20
-1.838000
40
0.080000
41
1.000000
1
10k
0
POLYLINE
8
0
66
1
40
0.016000
41
0.016000
0
VERTEX
8
0
10
0.200000
20
-2.040000
0
VERTEX
8
0
10
0.500000
20
-2.040000
0
VERTEX
8
0
10
0.500000
20
-1.960000
0
VERTEX
8
0
10
0.200000
20
-1.960000
0
VERTEX
8
0
10
0.200000
20
-2.040000
0
SEQEND
8
0
0
POLYLINE
8
0
66
1
40
0.016000
41
0.016000
0
VERTEX
8
0
10
0.100000
20
-2.000000
0
VERTEX
8
0
10
0.200000
20
-2.000000
0
SEQEND
8
0
0
POLYLINE
8
0
66
1
40
0.016000
41
0.016000
0
VERTEX
8
0
10
0.600000
20
-2.000000
0
VERTEX
8
0
10
0.500000
20
-2.000000
0
SEQEND
8
0
0
TEXT
8
0
10
0.192000
20
-1.937000
40
0.120000
41
0.666667
1
R11
0
TEXT
8
0
10
0.192000
20
-2.138000
40
0.080000
41
1.000000
1
10k
0
TEXT
8
0
10
-0.800000
20
-1.590000
40
0.080000
41
1.000000
1
KEY1
0
TEXT
8
0
10
-0.800000
20
-1.890000
40
0.080000
41
1.000000
1
KEY2
0
POLYLINE
8
0
66
1
40
0.016000
41
0.016000
0
VERTEX
8
0
10
0.200000
20
-2.340000
0
VERTEX
8
0
10
0.500000
20
-2.340000
0
VERTEX
8
0
10
0.500000
20
-2.260000
0
VERTEX
8
0
10
0.200000
20
-2.260000
0
VERTEX
8
0
10
0.200000
20
-2.340000
0
SEQEND
8
0
0
POLYLINE
8
0
66
1
40
0.016000
41
0.016000
0
VERTEX
8
0
10
0.100000
20
-2.300000
0
VERTEX
8
0
10
0.200000
20
-2.300000
0
SEQEND
8
0
0
POLYLINE
8
0
66
1
40
0.016000
41
0.016000
0
VERTEX
8
0
10
0.600000
20
-2.300000
0
VERTEX
8
0
10
0.500000
20
-2.300000
0
SEQEND
8
0
0
TEXT
8
0
10
0.192000
20
-2.237000
40
0.120000
41
0.666667
1
R12
0
TEXT
8
0
10
0.192000
20
-2.438000
40
0.080000
41
1.000000
1
10k
0
POLYLINE
8
0
66
1
40
0.016000
41
0.016000
0
VERTEX
8
0
10
0.200000
20
-2.640000
0
VERTEX
8
0
10
0.500000
20
-2.640000
0
VERTEX
8
0
10
0.500000
20
-2.560000
0
VERTEX
8
0
10
0.200000
20
-2.560000
0
VERTEX
8
0
10
0.200000
20
-2.640000
0
SEQEND
8
0
0
POLYLINE
8
0
66
1
40
0.016000
41
0.016000
0
VERTEX
8
0
10
0.100000
20
-2.600000
0
VERTEX
8
0
10
0.200000
20
-2.600000
0
SEQEND
8
0
0
POLYLINE
8
0
66
1
40
0.016000
41
0.016000
0
VERTEX
8
0
10
0.600000
20
-2.600000
0
VERTEX
8
0
10
0.500000
20
-2.600000
0
SEQEND
8
0
0
TEXT
8
0
10
0.192000
20
-2.537000
40
0.120000
41
0.666667
1
R13
0
TEXT
8
0
10
0.192000
20
-2.738000
40
0.080000
41
1.000000
1
10k
0
CIRCLE
8
0
10
-0.900000
20
-2.600000
40
0.020000
0
TEXT
8
0
10
-0.800000
20
-2.190000
40
0.080000
41
1.000000
1
KEY3
0
TEXT
8
0
10
-0.800000
20
-2.490000
40
0.080000
41
1.000000
1
KEY4
0
CIRCLE
8
0
10
1.200000
20
-0.600000
40
0.020000
0
CIRCLE
8
0
10
1.200000
20
-0.700000
40
0.020000
0
POLYLINE
8
0
66
1
40
0.016000
41
0.016000
0
VERTEX
8
0
10
1.600000
20
-2.500000
0
VERTEX
8
0
10
2.000000
20
-2.500000
0
VERTEX
8
0
10
2.000000
20
-1.600000
0
VERTEX
8
0
10
1.600000
20
-1.600000
0
VERTEX
8
0
10
1.600000
20
-2.500000
0
SEQEND
8
0
0
POLYLINE
8
0
66
1
40
0.010000
41
0.010000
0
VERTEX
8
0
10
1.620000
20
-1.700000
0
VERTEX
8
0
10
1.680000
20
-1.700000
0
VERTEX
8
0
10
1.700000
20
-1.670000
0
VERTEX
8
0
10
1.740000
20
-1.730000
0
SEQEND
8
0
0
POLYLINE
8
0
66
1
40
0.010000
41
0.010000
0
VERTEX
8
0
10
1.780000
20
-1.670000
0
VERTEX
8
0
10
1.740000
20
-1.730000
0
SEQEND
8
0
0
POLYLINE
8
0
66
1
40
0.010000
41
0.010000
0
VERTEX
8
0
10
1.780000
20
-1.670000
0
VERTEX
8
0
10
1.820000
20
-1.730000
0
SEQEND
8
0
0
POLYLINE
8
0
66
1
40
0.010000
41
0.010000
0
VERTEX
8
0
10
1.860000
20
-1.670000
0
VERTEX
8
0
10
1.820000
20
-1.730000
0
SEQEND
8
0
0
POLYLINE
8
0
66
1
40
0.010000
41
0.010000
0
VERTEX
8
0
10
1.860000
20
-1.670000
0
VERTEX
8
0
10
1.900000
20
-1.730000
0
VERTEX
8
0
10
1.920000
20
-1.700000
0
VERTEX
8
0
10
1.980000
20
-1.700000
0
SEQEND
8
0
0
POLYLINE
8
0
66
1
40
0.010000
41
0.010000
0
VERTEX
8
0
10
1.620000
20
-1.800000
0
VERTEX
8
0
10
1.680000
20
-1.800000
0
VERTEX
8
0
10
1.700000
20
-1.770000
0
VERTEX
8
0
10
1.740000
20
-1.830000
0
SEQEND
8
0
0
POLYLINE
8
0
66
1
40
0.010000
41
0.010000
0
VERTEX
8
0
10
1.780000
20
-1.770000
0
VERTEX
8
0
10
1.740000
20
-1.830000
0
SEQEND
8
0
0
POLYLINE
8
0
66
1
40
0.010000
41
0.010000
0
VERTEX
8
0
10
1.780000
20
-1.770000
0
VERTEX
8
0
10
1.820000
20
-1.830000
0
SEQEND
8
0
0
POLYLINE
8
0
66
1
40
0.010000
41
0.010000
0
VERTEX
8
0
10
1.860000
20
-1.770000
0
VERTEX
8
0
10
1.820000
20
-1.830000
0
SEQEND
8
0
0
POLYLINE
8
0
66
1
40
0.010000
41
0.010000
0
VERTEX
8
0
10
1.860000
20
-1.770000
0
VERTEX
8
0
10
1.900000
20
-1.830000
0
VERTEX
8
0
10
1.920000
20
-1.800000
0
VERTEX
8
0
10
1.980000
20
-1.800000
0
SEQEND
8
0
0
POLYLINE
8
0
66
1
40
0.010000
41
0.010000
0
VERTEX
8
0
10
1.620000
20
-1.900000
0
VERTEX
8
0
10
1.680000
20
-1.900000
0
VERTEX
8
0
10
1.700000
20
-1.870000
0
VERTEX
8
0
10
1.740000
20
-1.930000
0
SEQEND
8
0
0
POLYLINE
8
0
66
1
40
0.010000
41
0.010000
0
VERTEX
8
0
10
1.780000
20
-1.870000
0
VERTEX
8
0
10
1.740000
20
-1.930000
0
SEQEND
8
0
0
POLYLINE
8
0
66
1
40
0.010000
41
0.010000
0
VERTEX
8
0
10
1.780000
20
-1.870000
0
VERTEX
8
0
10
1.820000
20
-1.930000
0
SEQEND
8
0
0
POLYLINE
8
0
66
1
40
0.010000
41
0.010000
0
VERTEX
8
0
10
1.860000
20
-1.870000
0
VERTEX
8
0
10
1.820000
20
-1.930000
0
SEQEND
8
0
0
POLYLINE
8
0
66
1
40
0.010000
41
0.010000
0
VERTEX
8
0
10
1.860000
20
-1.870000
0
VERTEX
8
0
10
1.900000
20
-1.930000
0
VERTEX
8
0
10
1.920000
20
-1.900000
0
VERTEX
8
0
10
1.980000
20
-1.900000
0
SEQEND
8
0
0
POLYLINE
8
0
66
1
40
0.010000
41
0.010000
0
VERTEX
8
0
10
1.620000
20
-2.000000
0
VERTEX
8
0
10
1.680000
20
-2.000000
0
VERTEX
8
0
10
1.700000
20
-1.970000
0
VERTEX
8
0
10
1.740000
20
-2.030000
0
SEQEND
8
0
0
POLYLINE
8
0
66
1
40
0.010000
41
0.010000
0
VERTEX
8
0
10
1.780000
20
-1.970000
0
VERTEX
8
0
10
1.740000
20
-2.030000
0
SEQEND
8
0
0
POLYLINE
8
0
66
1
40
0.010000
41
0.010000
0
VERTEX
8
0
10
1.780000
20
-1.970000
0
VERTEX
8
0
10
1.820000
20
-2.030000
0
SEQEND
8
0
0
POLYLINE
8
0
66
1
40
0.010000
41
0.010000
0
VERTEX
8
0
10
1.860000
20
-1.970000
0
VERTEX
8
0
10
1.820000
20
-2.030000
0
SEQEND
8
0
0
POLYLINE
8
0
66
1
40
0.010000
41
0.010000
0
VERTEX
8
0
10
1.860000
20
-1.970000
0
VERTEX
8
0
10
1.900000
20
-2.030000
0
VERTEX
8
0
10
1.920000
20
-2.000000
0
VERTEX
8
0
10
1.980000
20
-2.000000
0
SEQEND
8
0
0
POLYLINE
8
0
66
1
40
0.010000
41
0.010000
0
VERTEX
8
0
10
1.620000
20
-2.100000
0
VERTEX
8
0
10
1.680000
20
-2.100000
0
VERTEX
8
0
10
1.700000
20
-2.070000
0
VERTEX
8
0
10
1.740000
20
-2.130000
0
SEQEND
8
0
0
POLYLINE
8
0
66
1
40
0.010000
41
0.010000
0
VERTEX
8
0
10
1.780000
20
-2.070000
0
VERTEX
8
0
10
1.740000
20
-2.130000
0
SEQEND
8
0
0
POLYLINE
8
0
66
1
40
0.010000
41
0.010000
0
VERTEX
8
0
10
1.780000
20
-2.070000
0
VERTEX
8
0
10
1.820000
20
-2.130000
0
SEQEND
8
0
0
POLYLINE
8
0
66
1
40
0.010000
41
0.010000
0
VERTEX
8
0
10
1.860000
20
-2.070000
0
VERTEX
8
0
10
1.820000
20
-2.130000
0
SEQEND
8
0
0
POLYLINE
8
0
66
1
40
0.010000
41
0.010000
0
VERTEX
8
0
10
1.860000
20
-2.070000
0
VERTEX
8
0
10
1.900000
20
-2.130000
0
VERTEX
8
0
10
1.920000
20
-2.100000
0
VERTEX
8
0
10
1.980000
20
-2.100000
0
SEQEND
8
0
0
POLYLINE
8
0
66
1
40
0.010000
41
0.010000
0
VERTEX
8
0
10
1.620000
20
-2.200000
0
VERTEX
8
0
10
1.680000
20
-2.200000
0
VERTEX
8
0
10
1.700000
20
-2.170000
0
VERTEX
8
0
10
1.740000
20
-2.230000
0
SEQEND
8
0
0
POLYLINE
8
0
66
1
40
0.010000
41
0.010000
0
VERTEX
8
0
10
1.780000
20
-2.170000
0
VERTEX
8
0
10
1.740000
20
-2.230000
0
SEQEND
8
0
0
POLYLINE
8
0
66
1
40
0.010000
41
0.010000
0
VERTEX
8
0
10
1.780000
20
-2.170000
0
VERTEX
8
0
10
1.820000
20
-2.230000
0
SEQEND
8
0
0
POLYLINE
8
0
66
1
40
0.010000
41
0.010000
0
VERTEX
8
0
10
1.860000
20
-2.170000
0
VERTEX
8
0
10
1.820000
20
-2.230000
0
SEQEND
8
0
0
POLYLINE
8
0
66
1
40
0.010000
41
0.010000
0
VERTEX
8
0
10
1.860000
20
-2.170000
0
VERTEX
8
0
10
1.900000
20
-2.230000
0
VERTEX
8
0
10
1.920000
20
-2.200000
0
VERTEX
8
0
10
1.980000
20
-2.200000
0
SEQEND
8
0
0
POLYLINE
8
0
66
1
40
0.010000
41
0.010000
0
VERTEX
8
0
10
1.620000
20
-2.300000
0
VERTEX
8
0
10
1.680000
20
-2.300000
0
VERTEX
8
0
10
1.700000
20
-2.270000
0
VERTEX
8
0
10
1.740000
20
-2.330000
0
SEQEND
8
0
0
POLYLINE
8
0
66
1
40
0.010000
41
0.010000
0
VERTEX
8
0
10
1.780000
20
-2.270000
0
VERTEX
8
0
10
1.740000
20
-2.330000
0
SEQEND
8
0
0
POLYLINE
8
0
66
1
40
0.010000
41
0.010000
0
VERTEX
8
0
10
1.780000
20
-2.270000
0
VERTEX
8
0
10
1.820000
20
-2.330000
0
SEQEND
8
0
0
POLYLINE
8
0
66
1
40
0.010000
41
0.010000
0
VERTEX
8
0
10
1.860000
20
-2.270000
0
VERTEX
8
0
10
1.820000
20
-2.330000
0
SEQEND
8
0
0
POLYLINE
8
0
66
1
40
0.010000
41
0.010000
0
VERTEX
8
0
10
1.860000
20
-2.270000
0
VERTEX
8
0
10
1.900000
20
-2.330000
0
VERTEX
8
0
10
1.920000
20
-2.300000
0
VERTEX
8
0
10
1.980000
20
-2.300000
0
SEQEND
8
0
0
POLYLINE
8
0
66
1
40
0.010000
41
0.010000
0
VERTEX
8
0
10
1.620000
20
-2.400000
0
VERTEX
8
0
10
1.680000
20
-2.400000
0
VERTEX
8
0
10
1.700000
20
-2.370000
0
VERTEX
8
0
10
1.740000
20
-2.430000
0
SEQEND
8
0
0
POLYLINE
8
0
66
1
40
0.010000
41
0.010000
0
VERTEX
8
0
10
1.780000
20
-2.370000
0
VERTEX
8
0
10
1.740000
20
-2.430000
0
SEQEND
8
0
0
POLYLINE
8
0
66
1
40
0.010000
41
0.010000
0
VERTEX
8
0
10
1.780000
20
-2.370000
0
VERTEX
8
0
10
1.820000
20
-2.430000
0
SEQEND
8
0
0
POLYLINE
8
0
66
1
40
0.010000
41
0.010000
0
VERTEX
8
0
10
1.860000
20
-2.370000
0
VERTEX
8
0
10
1.820000
20
-2.430000
0
SEQEND
8
0
0
POLYLINE
8
0
66
1
40
0.010000
41
0.010000
0
VERTEX
8
0
10
1.860000
20
-2.370000
0
VERTEX
8
0
10
1.900000
20
-2.430000
0
VERTEX
8
0
10
1.920000
20
-2.400000
0
VERTEX
8
0
10
1.980000
20
-2.400000
0
SEQEND
8
0
0
POLYLINE
8
0
66
1
40
0.016000
41
0.016000
0
VERTEX
8
0
10
1.400000
20
-1.700000
0
VERTEX
8
0
10
1.600000
20
-1.700000
0
SEQEND
8
0
0
TEXT
8
0
10
1.420000
20
-1.690000
40
0.080000
41
1.000000
1
1
0
POLYLINE
8
0
66
1
40
0.016000
41
0.016000
0
VERTEX
8
0
10
1.400000
20
-1.800000
0
VERTEX
8
0
10
1.600000
20
-1.800000
0
SEQEND
8
0
0
TEXT
8
0
10
1.420000
20
-1.790000
40
0.080000
41
1.000000
1
2
0
POLYLINE
8
0
66
1
40
0.016000
41
0.016000
0
VERTEX
8
0
10
1.400000
20
-1.900000
0
VERTEX
8
0
10
1.600000
20
-1.900000
0
SEQEND
8
0
0
TEXT
8
0
10
1.420000
20
-1.890000
40
0.080000
41
1.000000
1
3
0
POLYLINE
8
0
66
1
40
0.016000
41
0.016000
0
VERTEX
8
0
10
1.400000
20
-2.000000
0
VERTEX
8
0
10
1.600000
20
-2.000000
0
SEQEND
8
0
0
TEXT
8
0
10
1.420000
20
-1.990000
40
0.080000
41
1.000000
1
4
0
POLYLINE
8
0
66
1
40
0.016000
41
0.016000
0
VERTEX
8
0
10
1.400000
20
-2.100000
0
VERTEX
8
0
10
1.600000
20
-2.100000
0
SEQEND
8
0
0
TEXT
8
0
10
1.420000
20
-2.090000
40
0.080000
41
1.000000
1
5
0
POLYLINE
8
0
66
1
40
0.016000
41
0.016000
0
VERTEX
8
0
10
1.400000
20
-2.200000
0
VERTEX
8
0
10
1.600000
20
-2.200000
0
SEQEND
8
0
0
TEXT
8
0
10
1.420000
20
-2.190000
40
0.080000
41
1.000000
1
6
0
POLYLINE
8
0
66
1
40
0.016000
41
0.016000
0
VERTEX
8
0
10
1.400000
20
-2.300000
0
VERTEX
8
0
10
1.600000
20
-2.300000
0
SEQEND
8
0
0
TEXT
8
0
10
1.420000
20
-2.290000
40
0.080000
41
1.000000
1
7
0
POLYLINE
8
0
66
1
40
0.016000
41
0.016000
0
VERTEX
8
0
10
1.400000
20
-2.400000
0
VERTEX
8
0
10
1.600000
20
-2.400000
0
SEQEND
8
0
0
TEXT
8
0
10
1.420000
20
-2.390000
40
0.080000
41
1.000000
1
8
0
POLYLINE
8
0
66
1
40
0.016000
41
0.016000
0
VERTEX
8
0
10
2.200000
20
-1.700000
0
VERTEX
8
0
10
2.000000
20
-1.700000
0
SEQEND
8
0
0
TEXT
8
0
10
2.100000
20
-1.690000
40
0.080000
41
1.000000
1
16
0
POLYLINE
8
0
66
1
40
0.016000
41
0.016000
0
VERTEX
8
0
10
2.200000
20
-1.800000
0
VERTEX
8
0
10
2.000000
20
-1.800000
0
SEQEND
8
0
0
TEXT
8
0
10
2.100000
20
-1.790000
40
0.080000
41
1.000000
1
15
0
POLYLINE
8
0
66
1
40
0.016000
41
0.016000
0
VERTEX
8
0
10
2.200000
20
-1.900000
0
VERTEX
8
0
10
2.000000
20
-1.900000
0
SEQEND
8
0
0
TEXT
8
0
10
2.100000
20
-1.890000
40
0.080000
41
1.000000
1
14
0
POLYLINE
8
0
66
1
40
0.016000
41
0.016000
0
VERTEX
8
0
10
2.200000
20
-2.000000
0
VERTEX
8
0
10
2.000000
20
-2.000000
0
SEQEND
8
0
0
TEXT
8
0
10
2.100000
20
-1.990000
40
0.080000
41
1.000000
1
13
0
POLYLINE
8
0
66
1
40
0.016000
41
0.016000
0
VERTEX
8
0
10
2.200000
20
-2.100000
0
VERTEX
8
0
10
2.000000
20
-2.100000
0
SEQEND
8
0
0
TEXT
8
0
10
2.100000
20
-2.090000
40
0.080000
41
1.000000
1
12
0
POLYLINE
8
0
66
1
40
0.016000
41
0.016000
0
VERTEX
8
0
10
2.200000
20
-2.200000
0
VERTEX
8
0
10
2.000000
20
-2.200000
0
SEQEND
8
0
0
TEXT
8
0
10
2.100000
20
-2.190000
40
0.080000
41
1.000000
1
11
0
POLYLINE
8
0
66
1
40
0.016000
41
0.016000
0
VERTEX
8
0
10
2.200000
20
-2.300000
0
VERTEX
8
0
10
2.000000
20
-2.300000
0
SEQEND
8
0
0
TEXT
8
0
10
2.100000
20
-2.290000
40
0.080000
41
1.000000
1
10
0
POLYLINE
8
0
66
1
40
0.016000
41
0.016000
0
VERTEX
8
0
10
2.200000
20
-2.400000
0
VERTEX
8
0
10
2.000000
20
-2.400000
0
SEQEND
8
0
0
TEXT
8
0
10
2.100000
20
-2.390000
40
0.080000
41
1.000000
1
9
0
TEXT
8
0
10
1.592000
20
-1.577000
40
0.120000
41
0.666667
1
RN1
0
TEXT
8
0
10
1.592000
20
-2.598000
40
0.080000
41
1.000000
1
330
0
CIRCLE
8
0
10
1.100000
20
-1.700000
40
0.020000
0
CIRCLE
8
0
10
1.100000
20
-1.800000
40
0.020000
0
CIRCLE
8
0
10
1.100000
20
-1.900000
40
0.020000
0
CIRCLE
8
0
10
1.100000
20
-2.000000
40
0.020000
0
CIRCLE
8
0
10
1.100000
20
-2.100000
40
0.020000
0
CIRCLE
8
0
10
1.100000
20
-2.200000
40
0.020000
0
CIRCLE
8
0
10
1.100000
20
-2.300000
40
0.020000
0
CIRCLE
8
0
10
1.100000
20
-2.400000
40
0.020000
0
CIRCLE
8
0
10
0.700000
20
-2.000000
40
0.020000
0
CIRCLE
8
0
10
0.700000
20
-2.300000
40
0.020000
0
POLYLINE
8
0
66
1
40
0.016000
41
0.016000
0
VERTEX
8
0
10
0.650000
20
-1.400000
0
VERTEX
8
0
10
0.700000
20
-1.300000
0
VERTEX
8
0
10
0.750000
20
-1.400000
0
VERTEX
8
0
10
0.650000
20
-1.400000
0
SEQEND
8
0
0
POLYLINE
8
0
66
1
40
0.016000
41
0.016000
0
VERTEX
8
0
10
0.700000
20
-1.500000
0
VERTEX
8
0
10
0.700000
20
-1.300000
0
SEQEND
8
0
0
CIRCLE
8
0
10
0.700000
20
-1.700000
40
0.020000
0
CIRCLE
8
0
10
-0.280000
20
-2.000000
40
0.030000
0
CIRCLE
8
0
10
-0.520000
20
-2.000000
40
0.030000
0
POLYLINE
8
0
66
1
40
0.016000
41
0.016000
0
VERTEX
8
0
10
-0.540000
20
-1.920000
0
VERTEX
8
0
10
-0.260000
20
-1.920000
0
SEQEND
8
0
0
POLYLINE
8
0
66
1
40
0.016000
41
0.016000
0
VERTEX
8
0
10
-0.480000
20
-1.920000
0
VERTEX
8
0
10
-0.320000
20
-1.920000
0
VERTEX
8
0
10
-0.320000
20
-1.870000
0
VERTEX
8
0
10
-0.480000
20
-1.870000
0
VERTEX
8
0
10
-0.480000
20
-1.920000
0
SEQEND
8
0
0
POLYLINE
8
0
66
1
40
0.016000
41
0.016000
0
VERTEX
8
0
10
-0.650000
20
-2.000000
0
VERTEX
8
0
10
-0.550000
20
-2.000000
0
SEQEND
8
0
0
POLYLINE
8
0
66
1
40
0.016000
41
0.016000
0
VERTEX
8
0
10
-0.150000
20
-2.000000
0
VERTEX
8
0
10
-0.250000
20
-2.000000
0
SEQEND
8
0
0
CIRCLE
8
0
10
-0.200000
20
-1.900000
40
0.040000
0
POLYLINE
8
0
66
1
40
0.008000
41
0.008000
0
VERTEX
8
0
10
-0.200000
20
-1.920000
0
VERTEX
8
0
10
-0.200000
20
-1.880000
0
SEQEND
8
0
0
POLYLINE
8
0
66
1
40
0.008000
41
0.008000
0
VERTEX
8
0
10
-0.200000
20
-1.920000
0
VERTEX
8
0
10
-0.210000
20
-1.910000
0
SEQEND
8
0
0
POLYLINE
8
0
66
1
40
0.008000
41
0.008000
0
VERTEX
8
0
10
-0.200000
20
-1.920000
0
VERTEX
8
0
10
-0.190000
20
-1.910000
0
SEQEND
8
0
0
POLYLINE
8
0
66
1
40
0.008000
41
0.008000
0
VERTEX
8
0
10
-0.210000
20
-1.890000
0
VERTEX
8
0
10
-0.200000
20
-1.880000
0
VERTEX
8
0
10
-0.190000
20
-1.890000
0
SEQEND
8
0
0
CIRCLE
8
0
10
-0.280000
20
-2.300000
40
0.030000
0
CIRCLE
8
0
10
-0.520000
20
-2.300000
40
0.030000
0
POLYLINE
8
0
66
1
40
0.016000
41
0.016000
0
VERTEX
8
0
10
-0.540000
20
-2.220000
0
VERTEX
8
0
10
-0.260000
20
-2.220000
0
SEQEND
8
0
0
POLYLINE
8
0
66
1
40
0.016000
41
0.016000
0
VERTEX
8
0
10
-0.480000
20
-2.220000
0
VERTEX
8
0
10
-0.320000
20
-2.220000
0
VERTEX
8
0
10
-0.320000
20
-2.170000
0
VERTEX
8
0
10
-0.480000
20
-2.170000
0
VERTEX
8
0
10
-0.480000
20
-2.220000
0
SEQEND
8
0
0
POLYLINE
8
0
66
1
40
0.016000
41
0.016000
0
VERTEX
8
0
10
-0.650000
20
-2.300000
0
VERTEX
8
0
10
-0.550000
20
-2.300000
0
SEQEND
8
0
0
POLYLINE
8
0
66
1
40
0.016000
41
0.016000
0
VERTEX
8
0
10
-0.150000
20
-2.300000
0
VERTEX
8
0
10
-0.250000
20
-2.300000
0
SEQEND
8
0
0
CIRCLE
8
0
10
-0.200000
20
-2.200000
40
0.040000
0
POLYLINE
8
0
66
1
40
0.008000
41
0.008000
0
VERTEX
8
0
10
-0.200000
20
-2.220000
0
VERTEX
8
0
10
-0.200000
20
-2.180000
0
SEQEND
8
0
0
POLYLINE
8
0
66
1
40
0.008000
41
0.008000
0
VERTEX
8
0
10
-0.200000
20
-2.220000
0
VERTEX
8
0
10
-0.210000
20
-2.210000
0
SEQEND
8
0
0
POLYLINE
8
0
66
1
40
0.008000
41
0.008000
0
VERTEX
8
0
10
-0.200000
20
-2.220000
0
VERTEX
8
0
10
-0.190000
20
-2.210000
0
SEQEND
8
0
0
POLYLINE
8
0
66
1
40
0.008000
41
0.008000
0
VERTEX
8
0
10
-0.210000
20
-2.190000
0
VERTEX
8
0
10
-0.200000
20
-2.180000
0
VERTEX
8
0
10
-0.190000
20
-2.190000
0
SEQEND
8
0
0
CIRCLE
8
0
10
-0.900000
20
-2.000000
40
0.020000
0
CIRCLE
8
0
10
-0.900000
20
-2.300000
40
0.020000
0
CIRCLE
8
0
10
-0.280000
20
-2.600000
40
0.030000
0
CIRCLE
8
0
10
-0.520000
20
-2.600000
40
0.030000
0
POLYLINE
8
0
66
1
40
0.016000
41
0.016000
0
VERTEX
8
0
10
-0.540000
20
-2.520000
0
VERTEX
8
0
10
-0.260000
20
-2.520000
0
SEQEND
8
0
0
POLYLINE
8
0
66
1
40
0.016000
41
0.016000
0
VERTEX
8
0
10
-0.480000
20
-2.520000
0
VERTEX
8
0
10
-0.320000
20
-2.520000
0
VERTEX
8
0
10
-0.320000
20
-2.470000
0
VERTEX
8
0
10
-0.480000
20
-2.470000
0
VERTEX
8
0
10
-0.480000
20
-2.520000
0
SEQEND
8
0
0
POLYLINE
8
0
66
1
40
0.016000
41
0.016000
0
VERTEX
8
0
10
-0.650000
20
-2.600000
0
VERTEX
8
0
10
-0.550000
20
-2.600000
0
SEQEND
8
0
0
POLYLINE
8
0
66
1
40
0.016000
41
0.016000
0
VERTEX
8
0
10
-0.150000
20
-2.600000
0
VERTEX
8
0
10
-0.250000
20
-2.600000
0
SEQEND
8
0
0
CIRCLE
8
0
10
-0.200000
20
-2.500000
40
0.040000
0
POLYLINE
8
0
66
1
40
0.008000
41
0.008000
0
VERTEX
8
0
10
-0.200000
20
-2.520000
0
VERTEX
8
0
10
-0.200000
20
-2.480000
0
SEQEND
8
0
0
POLYLINE
8
0
66
1
40
0.008000
41
0.008000
0
VERTEX
8
0
10
-0.200000
20
-2.520000
0
VERTEX
8
0
10
-0.210000
20
-2.510000
0
SEQEND
8
0
0
POLYLINE
8
0
66
1
40
0.008000
41
0.008000
0
VERTEX
8
0
10
-0.200000
20
-2.520000
0
VERTEX
8
0
10
-0.190000
20
-2.510000
0
SEQEND
8
0
0
POLYLINE
8
0
66
1
40
0.008000
41
0.008000
0
VERTEX
8
0
10
-0.210000
20
-2.490000
0
VERTEX
8
0
10
-0.200000
20
-2.480000
0
VERTEX
8
0
10
-0.190000
20
-2.490000
0
SEQEND
8
0
0
ENDSEC
0
EOF

